<?xml version="1.0" encoding="utf-8" standalone="no"?>
<!DOCTYPE svg PUBLIC "-//W3C//DTD SVG 1.1//EN"
  "http://www.w3.org/Graphics/SVG/1.1/DTD/svg11.dtd">
<svg xmlns:xlink="http://www.w3.org/1999/xlink" width="396.734902pt" height="249.740894pt" viewBox="0 0 396.734902 249.740894" xmlns="http://www.w3.org/2000/svg" version="1.1">
 <metadata>
  <rdf:RDF xmlns:dc="http://purl.org/dc/elements/1.1/" xmlns:cc="http://creativecommons.org/ns#" xmlns:rdf="http://www.w3.org/1999/02/22-rdf-syntax-ns#">
   <cc:Work>
    <dc:type rdf:resource="http://purl.org/dc/dcmitype/StillImage"/>
    <dc:date>2025-08-13T16:46:32.209665</dc:date>
    <dc:format>image/svg+xml</dc:format>
    <dc:creator>
     <cc:Agent>
      <dc:title>Matplotlib v3.9.1.post1, https://matplotlib.org/</dc:title>
     </cc:Agent>
    </dc:creator>
   </cc:Work>
  </rdf:RDF>
 </metadata>
 <defs>
  <style type="text/css">*{stroke-linejoin: round; stroke-linecap: butt}</style>
 </defs>
 <g id="figure_1">
  <g id="patch_1">
   <path d="M 0 249.740894 
L 396.734902 249.740894 
L 396.734902 -0 
L 0 -0 
z
" style="fill: #ffffff"/>
  </g>
  <g id="axes_1">
   <g id="patch_2">
    <path d="M 48.561094 207.03355 
L 383.377637 207.03355 
L 383.377637 27.272125 
L 48.561094 27.272125 
z
" style="fill: #ffffff"/>
   </g>
   <g id="matplotlib.axis_1">
    <g id="xtick_1">
     <g id="line2d_1">
      <path d="M 104.177718 207.03355 
L 104.177718 27.272125 
" clip-path="url(#p32cfeb8610)" style="fill: none; stroke-dasharray: 2.96,1.28; stroke-dashoffset: 0; stroke: #b0b0b0; stroke-opacity: 0.5; stroke-width: 0.8"/>
     </g>
     <g id="line2d_2">
      <defs>
       <path id="m0acdd9059c" d="M 0 0 
L 0 6 
" style="stroke: #000000; stroke-width: 1.2"/>
      </defs>
      <g>
       <use xlink:href="#m0acdd9059c" x="104.177718" y="207.03355" style="stroke: #000000; stroke-width: 1.2"/>
      </g>
     </g>
     <g id="text_1">
      <text style="font: 10.5px 'Microsoft YaHei', 'SimHei', 'SimSun', 'PingFang SC', 'Heiti SC', 'Noto Sans CJK SC', 'WenQuanYi Micro Hei', 'Source Han Sans CN', 'Arial Unicode MS', 'DejaVu Sans', sans-serif; text-anchor: middle" x="104.177718" y="224.926987" transform="rotate(-0 104.177718 224.926987)">5</text>
     </g>
    </g>
    <g id="xtick_2">
     <g id="line2d_3">
      <path d="M 160.017701 207.03355 
L 160.017701 27.272125 
" clip-path="url(#p32cfeb8610)" style="fill: none; stroke-dasharray: 2.96,1.28; stroke-dashoffset: 0; stroke: #b0b0b0; stroke-opacity: 0.5; stroke-width: 0.8"/>
     </g>
     <g id="line2d_4">
      <g>
       <use xlink:href="#m0acdd9059c" x="160.017701" y="207.03355" style="stroke: #000000; stroke-width: 1.2"/>
      </g>
     </g>
     <g id="text_2">
      <text style="font: 10.5px 'Microsoft YaHei', 'SimHei', 'SimSun', 'PingFang SC', 'Heiti SC', 'Noto Sans CJK SC', 'WenQuanYi Micro Hei', 'Source Han Sans CN', 'Arial Unicode MS', 'DejaVu Sans', sans-serif; text-anchor: middle" x="160.017701" y="224.926987" transform="rotate(-0 160.017701 224.926987)">10</text>
     </g>
    </g>
    <g id="xtick_3">
     <g id="line2d_5">
      <path d="M 215.857685 207.03355 
L 215.857685 27.272125 
" clip-path="url(#p32cfeb8610)" style="fill: none; stroke-dasharray: 2.96,1.28; stroke-dashoffset: 0; stroke: #b0b0b0; stroke-opacity: 0.5; stroke-width: 0.8"/>
     </g>
     <g id="line2d_6">
      <g>
       <use xlink:href="#m0acdd9059c" x="215.857685" y="207.03355" style="stroke: #000000; stroke-width: 1.2"/>
      </g>
     </g>
     <g id="text_3">
      <text style="font: 10.5px 'Microsoft YaHei', 'SimHei', 'SimSun', 'PingFang SC', 'Heiti SC', 'Noto Sans CJK SC', 'WenQuanYi Micro Hei', 'Source Han Sans CN', 'Arial Unicode MS', 'DejaVu Sans', sans-serif; text-anchor: middle" x="215.857685" y="224.926987" transform="rotate(-0 215.857685 224.926987)">15</text>
     </g>
    </g>
    <g id="xtick_4">
     <g id="line2d_7">
      <path d="M 271.697669 207.03355 
L 271.697669 27.272125 
" clip-path="url(#p32cfeb8610)" style="fill: none; stroke-dasharray: 2.96,1.28; stroke-dashoffset: 0; stroke: #b0b0b0; stroke-opacity: 0.5; stroke-width: 0.8"/>
     </g>
     <g id="line2d_8">
      <g>
       <use xlink:href="#m0acdd9059c" x="271.697669" y="207.03355" style="stroke: #000000; stroke-width: 1.2"/>
      </g>
     </g>
     <g id="text_4">
      <text style="font: 10.5px 'Microsoft YaHei', 'SimHei', 'SimSun', 'PingFang SC', 'Heiti SC', 'Noto Sans CJK SC', 'WenQuanYi Micro Hei', 'Source Han Sans CN', 'Arial Unicode MS', 'DejaVu Sans', sans-serif; text-anchor: middle" x="271.697669" y="224.926987" transform="rotate(-0 271.697669 224.926987)">20</text>
     </g>
    </g>
    <g id="xtick_5">
     <g id="line2d_9">
      <path d="M 327.537653 207.03355 
L 327.537653 27.272125 
" clip-path="url(#p32cfeb8610)" style="fill: none; stroke-dasharray: 2.96,1.28; stroke-dashoffset: 0; stroke: #b0b0b0; stroke-opacity: 0.5; stroke-width: 0.8"/>
     </g>
     <g id="line2d_10">
      <g>
       <use xlink:href="#m0acdd9059c" x="327.537653" y="207.03355" style="stroke: #000000; stroke-width: 1.2"/>
      </g>
     </g>
     <g id="text_5">
      <text style="font: 10.5px 'Microsoft YaHei', 'SimHei', 'SimSun', 'PingFang SC', 'Heiti SC', 'Noto Sans CJK SC', 'WenQuanYi Micro Hei', 'Source Han Sans CN', 'Arial Unicode MS', 'DejaVu Sans', sans-serif; text-anchor: middle" x="327.537653" y="224.926987" transform="rotate(-0 327.537653 224.926987)">25</text>
     </g>
    </g>
    <g id="xtick_6">
     <g id="line2d_11">
      <path d="M 383.377637 207.03355 
L 383.377637 27.272125 
" clip-path="url(#p32cfeb8610)" style="fill: none; stroke-dasharray: 2.96,1.28; stroke-dashoffset: 0; stroke: #b0b0b0; stroke-opacity: 0.5; stroke-width: 0.8"/>
     </g>
     <g id="line2d_12">
      <g>
       <use xlink:href="#m0acdd9059c" x="383.377637" y="207.03355" style="stroke: #000000; stroke-width: 1.2"/>
      </g>
     </g>
     <g id="text_6">
      <text style="font: 10.5px 'Microsoft YaHei', 'SimHei', 'SimSun', 'PingFang SC', 'Heiti SC', 'Noto Sans CJK SC', 'WenQuanYi Micro Hei', 'Source Han Sans CN', 'Arial Unicode MS', 'DejaVu Sans', sans-serif; text-anchor: middle" x="383.377637" y="224.926987" transform="rotate(-0 383.377637 224.926987)">30</text>
     </g>
    </g>
    <g id="xtick_7">
     <g id="line2d_13">
      <path d="M 76.257726 207.03355 
L 76.257726 27.272125 
" clip-path="url(#p32cfeb8610)" style="fill: none; stroke-dasharray: 2.22,0.96; stroke-dashoffset: 0; stroke: #b0b0b0; stroke-opacity: 0.25; stroke-width: 0.6"/>
     </g>
     <g id="line2d_14">
      <defs>
       <path id="m3b400e504d" d="M 0 0 
L 0 3.5 
" style="stroke: #000000; stroke-width: 1.2"/>
      </defs>
      <g>
       <use xlink:href="#m3b400e504d" x="76.257726" y="207.03355" style="stroke: #000000; stroke-width: 1.2"/>
      </g>
     </g>
    </g>
    <g id="xtick_8">
     <g id="line2d_15">
      <path d="M 132.09771 207.03355 
L 132.09771 27.272125 
" clip-path="url(#p32cfeb8610)" style="fill: none; stroke-dasharray: 2.22,0.96; stroke-dashoffset: 0; stroke: #b0b0b0; stroke-opacity: 0.25; stroke-width: 0.6"/>
     </g>
     <g id="line2d_16">
      <g>
       <use xlink:href="#m3b400e504d" x="132.09771" y="207.03355" style="stroke: #000000; stroke-width: 1.2"/>
      </g>
     </g>
    </g>
    <g id="xtick_9">
     <g id="line2d_17">
      <path d="M 187.937693 207.03355 
L 187.937693 27.272125 
" clip-path="url(#p32cfeb8610)" style="fill: none; stroke-dasharray: 2.22,0.96; stroke-dashoffset: 0; stroke: #b0b0b0; stroke-opacity: 0.25; stroke-width: 0.6"/>
     </g>
     <g id="line2d_18">
      <g>
       <use xlink:href="#m3b400e504d" x="187.937693" y="207.03355" style="stroke: #000000; stroke-width: 1.2"/>
      </g>
     </g>
    </g>
    <g id="xtick_10">
     <g id="line2d_19">
      <path d="M 243.777677 207.03355 
L 243.777677 27.272125 
" clip-path="url(#p32cfeb8610)" style="fill: none; stroke-dasharray: 2.22,0.96; stroke-dashoffset: 0; stroke: #b0b0b0; stroke-opacity: 0.25; stroke-width: 0.6"/>
     </g>
     <g id="line2d_20">
      <g>
       <use xlink:href="#m3b400e504d" x="243.777677" y="207.03355" style="stroke: #000000; stroke-width: 1.2"/>
      </g>
     </g>
    </g>
    <g id="xtick_11">
     <g id="line2d_21">
      <path d="M 299.617661 207.03355 
L 299.617661 27.272125 
" clip-path="url(#p32cfeb8610)" style="fill: none; stroke-dasharray: 2.22,0.96; stroke-dashoffset: 0; stroke: #b0b0b0; stroke-opacity: 0.25; stroke-width: 0.6"/>
     </g>
     <g id="line2d_22">
      <g>
       <use xlink:href="#m3b400e504d" x="299.617661" y="207.03355" style="stroke: #000000; stroke-width: 1.2"/>
      </g>
     </g>
    </g>
    <g id="xtick_12">
     <g id="line2d_23">
      <path d="M 355.457645 207.03355 
L 355.457645 27.272125 
" clip-path="url(#p32cfeb8610)" style="fill: none; stroke-dasharray: 2.22,0.96; stroke-dashoffset: 0; stroke: #b0b0b0; stroke-opacity: 0.25; stroke-width: 0.6"/>
     </g>
     <g id="line2d_24">
      <g>
       <use xlink:href="#m3b400e504d" x="355.457645" y="207.03355" style="stroke: #000000; stroke-width: 1.2"/>
      </g>
     </g>
    </g>
    <g id="text_7">
     <text style="font: 10.5px 'Microsoft YaHei', 'SimHei', 'SimSun', 'PingFang SC', 'Heiti SC', 'Noto Sans CJK SC', 'WenQuanYi Micro Hei', 'Source Han Sans CN', 'Arial Unicode MS', 'DejaVu Sans', sans-serif; text-anchor: middle" x="215.969365" y="239.930659" transform="rotate(-0 215.969365 239.930659)">时间</text>
    </g>
   </g>
   <g id="matplotlib.axis_2">
    <g id="ytick_1">
     <g id="line2d_25">
      <path d="M 48.561094 199.045237 
L 383.377637 199.045237 
" clip-path="url(#p32cfeb8610)" style="fill: none; stroke-dasharray: 2.96,1.28; stroke-dashoffset: 0; stroke: #b0b0b0; stroke-opacity: 0.5; stroke-width: 0.8"/>
     </g>
     <g id="line2d_26">
      <defs>
       <path id="m7a208c948a" d="M 0 0 
L -6 0 
" style="stroke: #000000; stroke-width: 1.2"/>
      </defs>
      <g>
       <use xlink:href="#m7a208c948a" x="48.561094" y="199.045237" style="stroke: #000000; stroke-width: 1.2"/>
      </g>
     </g>
     <g id="text_8">
      <text style="font: 10.5px 'Microsoft YaHei', 'SimHei', 'SimSun', 'PingFang SC', 'Heiti SC', 'Noto Sans CJK SC', 'WenQuanYi Micro Hei', 'Source Han Sans CN', 'Arial Unicode MS', 'DejaVu Sans', sans-serif; text-anchor: end" x="39.061094" y="203.241956" transform="rotate(-0 39.061094 203.241956)">-60</text>
     </g>
    </g>
    <g id="ytick_2">
     <g id="line2d_27">
      <path d="M 48.561094 172.495475 
L 383.377637 172.495475 
" clip-path="url(#p32cfeb8610)" style="fill: none; stroke-dasharray: 2.96,1.28; stroke-dashoffset: 0; stroke: #b0b0b0; stroke-opacity: 0.5; stroke-width: 0.8"/>
     </g>
     <g id="line2d_28">
      <g>
       <use xlink:href="#m7a208c948a" x="48.561094" y="172.495475" style="stroke: #000000; stroke-width: 1.2"/>
      </g>
     </g>
     <g id="text_9">
      <text style="font: 10.5px 'Microsoft YaHei', 'SimHei', 'SimSun', 'PingFang SC', 'Heiti SC', 'Noto Sans CJK SC', 'WenQuanYi Micro Hei', 'Source Han Sans CN', 'Arial Unicode MS', 'DejaVu Sans', sans-serif; text-anchor: end" x="39.061094" y="176.692194" transform="rotate(-0 39.061094 176.692194)">-40</text>
     </g>
    </g>
    <g id="ytick_3">
     <g id="line2d_29">
      <path d="M 48.561094 145.945714 
L 383.377637 145.945714 
" clip-path="url(#p32cfeb8610)" style="fill: none; stroke-dasharray: 2.96,1.28; stroke-dashoffset: 0; stroke: #b0b0b0; stroke-opacity: 0.5; stroke-width: 0.8"/>
     </g>
     <g id="line2d_30">
      <g>
       <use xlink:href="#m7a208c948a" x="48.561094" y="145.945714" style="stroke: #000000; stroke-width: 1.2"/>
      </g>
     </g>
     <g id="text_10">
      <text style="font: 10.5px 'Microsoft YaHei', 'SimHei', 'SimSun', 'PingFang SC', 'Heiti SC', 'Noto Sans CJK SC', 'WenQuanYi Micro Hei', 'Source Han Sans CN', 'Arial Unicode MS', 'DejaVu Sans', sans-serif; text-anchor: end" x="39.061094" y="150.142432" transform="rotate(-0 39.061094 150.142432)">-20</text>
     </g>
    </g>
    <g id="ytick_4">
     <g id="line2d_31">
      <path d="M 48.561094 119.395952 
L 383.377637 119.395952 
" clip-path="url(#p32cfeb8610)" style="fill: none; stroke-dasharray: 2.96,1.28; stroke-dashoffset: 0; stroke: #b0b0b0; stroke-opacity: 0.5; stroke-width: 0.8"/>
     </g>
     <g id="line2d_32">
      <g>
       <use xlink:href="#m7a208c948a" x="48.561094" y="119.395952" style="stroke: #000000; stroke-width: 1.2"/>
      </g>
     </g>
     <g id="text_11">
      <text style="font: 10.5px 'Microsoft YaHei', 'SimHei', 'SimSun', 'PingFang SC', 'Heiti SC', 'Noto Sans CJK SC', 'WenQuanYi Micro Hei', 'Source Han Sans CN', 'Arial Unicode MS', 'DejaVu Sans', sans-serif; text-anchor: end" x="39.061094" y="123.592671" transform="rotate(-0 39.061094 123.592671)">0</text>
     </g>
    </g>
    <g id="ytick_5">
     <g id="line2d_33">
      <path d="M 48.561094 92.84619 
L 383.377637 92.84619 
" clip-path="url(#p32cfeb8610)" style="fill: none; stroke-dasharray: 2.96,1.28; stroke-dashoffset: 0; stroke: #b0b0b0; stroke-opacity: 0.5; stroke-width: 0.8"/>
     </g>
     <g id="line2d_34">
      <g>
       <use xlink:href="#m7a208c948a" x="48.561094" y="92.84619" style="stroke: #000000; stroke-width: 1.2"/>
      </g>
     </g>
     <g id="text_12">
      <text style="font: 10.5px 'Microsoft YaHei', 'SimHei', 'SimSun', 'PingFang SC', 'Heiti SC', 'Noto Sans CJK SC', 'WenQuanYi Micro Hei', 'Source Han Sans CN', 'Arial Unicode MS', 'DejaVu Sans', sans-serif; text-anchor: end" x="39.061094" y="97.042909" transform="rotate(-0 39.061094 97.042909)">20</text>
     </g>
    </g>
    <g id="ytick_6">
     <g id="line2d_35">
      <path d="M 48.561094 66.296428 
L 383.377637 66.296428 
" clip-path="url(#p32cfeb8610)" style="fill: none; stroke-dasharray: 2.96,1.28; stroke-dashoffset: 0; stroke: #b0b0b0; stroke-opacity: 0.5; stroke-width: 0.8"/>
     </g>
     <g id="line2d_36">
      <g>
       <use xlink:href="#m7a208c948a" x="48.561094" y="66.296428" style="stroke: #000000; stroke-width: 1.2"/>
      </g>
     </g>
     <g id="text_13">
      <text style="font: 10.5px 'Microsoft YaHei', 'SimHei', 'SimSun', 'PingFang SC', 'Heiti SC', 'Noto Sans CJK SC', 'WenQuanYi Micro Hei', 'Source Han Sans CN', 'Arial Unicode MS', 'DejaVu Sans', sans-serif; text-anchor: end" x="39.061094" y="70.493147" transform="rotate(-0 39.061094 70.493147)">40</text>
     </g>
    </g>
    <g id="ytick_7">
     <g id="line2d_37">
      <path d="M 48.561094 39.746667 
L 383.377637 39.746667 
" clip-path="url(#p32cfeb8610)" style="fill: none; stroke-dasharray: 2.96,1.28; stroke-dashoffset: 0; stroke: #b0b0b0; stroke-opacity: 0.5; stroke-width: 0.8"/>
     </g>
     <g id="line2d_38">
      <g>
       <use xlink:href="#m7a208c948a" x="48.561094" y="39.746667" style="stroke: #000000; stroke-width: 1.2"/>
      </g>
     </g>
     <g id="text_14">
      <text style="font: 10.5px 'Microsoft YaHei', 'SimHei', 'SimSun', 'PingFang SC', 'Heiti SC', 'Noto Sans CJK SC', 'WenQuanYi Micro Hei', 'Source Han Sans CN', 'Arial Unicode MS', 'DejaVu Sans', sans-serif; text-anchor: end" x="39.061094" y="43.943385" transform="rotate(-0 39.061094 43.943385)">60</text>
     </g>
    </g>
    <g id="ytick_8">
     <g id="line2d_39">
      <path d="M 48.561094 185.770356 
L 383.377637 185.770356 
" clip-path="url(#p32cfeb8610)" style="fill: none; stroke-dasharray: 2.22,0.96; stroke-dashoffset: 0; stroke: #b0b0b0; stroke-opacity: 0.25; stroke-width: 0.6"/>
     </g>
     <g id="line2d_40">
      <defs>
       <path id="m4e2acc0e2b" d="M 0 0 
L -3.5 0 
" style="stroke: #000000; stroke-width: 1.2"/>
      </defs>
      <g>
       <use xlink:href="#m4e2acc0e2b" x="48.561094" y="185.770356" style="stroke: #000000; stroke-width: 1.2"/>
      </g>
     </g>
    </g>
    <g id="ytick_9">
     <g id="line2d_41">
      <path d="M 48.561094 159.220595 
L 383.377637 159.220595 
" clip-path="url(#p32cfeb8610)" style="fill: none; stroke-dasharray: 2.22,0.96; stroke-dashoffset: 0; stroke: #b0b0b0; stroke-opacity: 0.25; stroke-width: 0.6"/>
     </g>
     <g id="line2d_42">
      <g>
       <use xlink:href="#m4e2acc0e2b" x="48.561094" y="159.220595" style="stroke: #000000; stroke-width: 1.2"/>
      </g>
     </g>
    </g>
    <g id="ytick_10">
     <g id="line2d_43">
      <path d="M 48.561094 132.670833 
L 383.377637 132.670833 
" clip-path="url(#p32cfeb8610)" style="fill: none; stroke-dasharray: 2.22,0.96; stroke-dashoffset: 0; stroke: #b0b0b0; stroke-opacity: 0.25; stroke-width: 0.6"/>
     </g>
     <g id="line2d_44">
      <g>
       <use xlink:href="#m4e2acc0e2b" x="48.561094" y="132.670833" style="stroke: #000000; stroke-width: 1.2"/>
      </g>
     </g>
    </g>
    <g id="ytick_11">
     <g id="line2d_45">
      <path d="M 48.561094 106.121071 
L 383.377637 106.121071 
" clip-path="url(#p32cfeb8610)" style="fill: none; stroke-dasharray: 2.22,0.96; stroke-dashoffset: 0; stroke: #b0b0b0; stroke-opacity: 0.25; stroke-width: 0.6"/>
     </g>
     <g id="line2d_46">
      <g>
       <use xlink:href="#m4e2acc0e2b" x="48.561094" y="106.121071" style="stroke: #000000; stroke-width: 1.2"/>
      </g>
     </g>
    </g>
    <g id="ytick_12">
     <g id="line2d_47">
      <path d="M 48.561094 79.571309 
L 383.377637 79.571309 
" clip-path="url(#p32cfeb8610)" style="fill: none; stroke-dasharray: 2.22,0.96; stroke-dashoffset: 0; stroke: #b0b0b0; stroke-opacity: 0.25; stroke-width: 0.6"/>
     </g>
     <g id="line2d_48">
      <g>
       <use xlink:href="#m4e2acc0e2b" x="48.561094" y="79.571309" style="stroke: #000000; stroke-width: 1.2"/>
      </g>
     </g>
    </g>
    <g id="ytick_13">
     <g id="line2d_49">
      <path d="M 48.561094 53.021548 
L 383.377637 53.021548 
" clip-path="url(#p32cfeb8610)" style="fill: none; stroke-dasharray: 2.22,0.96; stroke-dashoffset: 0; stroke: #b0b0b0; stroke-opacity: 0.25; stroke-width: 0.6"/>
     </g>
     <g id="line2d_50">
      <g>
       <use xlink:href="#m4e2acc0e2b" x="48.561094" y="53.021548" style="stroke: #000000; stroke-width: 1.2"/>
      </g>
     </g>
    </g>
    <g id="text_15">
     <text style="font: 10.5px 'Microsoft YaHei', 'SimHei', 'SimSun', 'PingFang SC', 'Heiti SC', 'Noto Sans CJK SC', 'WenQuanYi Micro Hei', 'Source Han Sans CN', 'Arial Unicode MS', 'DejaVu Sans', sans-serif; text-anchor: middle" x="15.593438" y="117.152837" transform="rotate(-90 15.593438 117.152837)">位移</text>
    </g>
   </g>
   <g id="line2d_51">
    <path d="M 48.561094 119.395515 
L 50.347973 119.316432 
L 52.134853 118.991084 
L 53.251652 118.886646 
L 54.145092 118.99914 
L 55.038532 119.321835 
L 56.155332 119.964716 
L 57.718851 121.192835 
L 59.059011 122.631789 
L 61.06925 125.188986 
L 61.51597 125.462767 
L 61.96269 125.486492 
L 62.40941 125.197124 
L 65.313089 122.160883 
L 65.759809 121.226712 
L 66.206529 119.723714 
L 66.653249 117.362614 
L 67.099968 113.699465 
L 67.546688 108.386854 
L 68.216768 97.497028 
L 69.333568 78.231722 
L 69.780288 73.69326 
L 70.003648 72.870063 
L 70.227007 73.252033 
L 70.450367 74.959356 
L 70.897087 82.386054 
L 71.567167 101.195431 
L 72.683967 134.624536 
L 73.130687 143.01246 
L 73.577407 147.357982 
L 74.024126 148.749808 
L 74.247486 149.12528 
L 74.470846 149.823743 
L 74.694206 151.206744 
L 75.140926 156.840461 
L 75.811006 171.021438 
L 76.481086 183.64127 
L 76.704446 185.853688 
L 76.927806 186.703868 
L 77.151165 186.078185 
L 77.374525 183.91933 
L 77.821245 175.0868 
L 78.491325 152.864633 
L 79.831485 104.792978 
L 80.724924 83.111284 
L 82.735164 38.354785 
L 82.958524 36.202583 
L 83.181884 35.443099 
L 83.405244 36.265739 
L 83.628604 38.799756 
L 84.075323 48.949099 
L 84.745403 73.032307 
L 85.638843 105.384662 
L 86.308923 122.054183 
L 88.095802 156.258223 
L 89.435962 191.771624 
L 89.882682 197.639864 
L 90.106042 198.840018 
L 90.329402 198.862576 
L 90.552762 197.730436 
L 90.999481 192.282165 
L 91.669561 178.089739 
L 92.563001 152.674413 
L 93.456441 121.062683 
L 95.24332 52.721517 
L 95.69004 44.167233 
L 95.9134 42.241261 
L 96.13676 41.853505 
L 96.36012 42.916919 
L 96.80684 48.872482 
L 97.47692 64.146022 
L 98.593719 90.851926 
L 100.827319 137.591828 
L 101.720758 158.41756 
L 102.167478 165.06507 
L 102.390838 166.94837 
L 102.614198 167.807215 
L 102.837558 167.6641 
L 103.060918 166.584162 
L 103.507638 162.070888 
L 104.177718 151.641225 
L 105.294517 133.602717 
L 106.187957 122.912914 
L 107.081397 115.120132 
L 108.198196 108.561972 
L 109.538356 100.291919 
L 109.985076 98.970954 
L 110.208436 98.691253 
L 110.431796 98.628437 
L 110.655156 98.760382 
L 111.101876 99.573429 
L 111.548596 101.141604 
L 112.218675 104.889472 
L 115.569074 127.248101 
L 116.685874 133.569508 
L 117.355954 136.204448 
L 117.802674 136.971399 
L 118.026034 136.92348 
L 118.249394 136.545365 
L 118.696113 134.792276 
L 119.142833 131.856959 
L 120.036273 123.808276 
L 120.929713 116.373015 
L 121.376433 114.207767 
L 121.823153 113.310285 
L 122.046512 113.2507 
L 122.939952 113.553194 
L 123.163312 113.325572 
L 123.610032 112.241642 
L 124.280112 109.488398 
L 124.950192 106.641539 
L 125.396911 105.661342 
L 125.620271 105.692849 
L 125.843631 106.148088 
L 126.290351 108.361994 
L 126.960431 114.18333 
L 128.300591 127.24118 
L 128.97067 131.608725 
L 129.41739 133.013015 
L 129.64075 133.242683 
L 129.86411 133.195673 
L 130.08747 132.911195 
L 130.53419 131.721837 
L 130.98091 129.648476 
L 131.42763 126.540761 
L 133.214509 111.962538 
L 133.884589 109.022307 
L 134.331309 108.082102 
L 134.554669 107.968093 
L 134.778029 108.118783 
L 135.001389 108.552686 
L 135.448109 110.326825 
L 135.894828 113.314548 
L 137.458348 126.197536 
L 137.905068 127.811057 
L 138.128428 128.116512 
L 138.351788 128.117264 
L 138.575148 127.848455 
L 139.021868 126.724082 
L 139.915307 124.238854 
L 140.362027 123.752072 
L 141.032107 123.44925 
L 141.255467 123.180759 
L 141.702187 122.079089 
L 142.148907 120.165117 
L 143.935786 110.833682 
L 144.159146 110.566894 
L 144.382506 110.632488 
L 144.605866 110.997733 
L 145.052586 112.392697 
L 146.616105 118.22106 
L 147.509545 120.598554 
L 148.179625 121.831292 
L 148.849705 122.6137 
L 149.073065 122.697442 
L 149.296425 122.629071 
L 149.519784 122.373271 
L 149.966504 121.293466 
L 151.083304 117.915187 
L 151.306664 117.653604 
L 151.530024 117.596774 
L 151.753384 117.726414 
L 152.200104 118.423057 
L 152.870184 120.170877 
L 153.986983 123.362871 
L 154.210343 123.618874 
L 154.433703 123.658498 
L 154.657063 123.498831 
L 155.103783 122.74177 
L 155.997223 120.513705 
L 156.890662 118.157414 
L 157.337382 117.489657 
L 157.560742 117.390569 
L 157.784102 117.45226 
L 158.230822 117.95758 
L 159.124262 119.315705 
L 159.570982 119.60943 
L 160.017701 119.580763 
L 160.911141 119.341266 
L 161.581221 119.587388 
L 162.027941 119.70892 
L 162.474661 119.487221 
L 162.921381 118.857528 
L 164.26154 116.444383 
L 164.4849 116.323157 
L 164.70826 116.348762 
L 165.15498 116.811947 
L 165.82506 118.202916 
L 167.388579 121.995229 
L 167.835299 122.442038 
L 168.058659 122.478481 
L 168.505379 122.208554 
L 168.952099 121.550065 
L 169.398819 120.521519 
L 170.068899 118.23175 
L 171.409058 113.0963 
L 171.855778 112.307955 
L 172.079138 112.185792 
L 172.302498 112.247924 
L 172.525858 112.492287 
L 172.972578 113.510023 
L 173.419298 115.204984 
L 174.089377 118.988207 
L 175.876257 130.681723 
L 176.322977 132.097958 
L 176.546337 132.430768 
L 176.769697 132.49911 
L 176.993057 132.2993 
L 177.439776 131.111294 
L 177.886496 128.967463 
L 178.556576 124.468356 
L 179.896736 115.269532 
L 180.566816 112.086589 
L 181.236895 109.918866 
L 181.683615 109.066068 
L 182.130335 108.719002 
L 182.353695 108.726407 
L 182.800415 109.071554 
L 183.247135 109.840569 
L 183.693855 111.049524 
L 184.363934 113.677162 
L 186.150814 121.839532 
L 186.820894 123.600351 
L 187.267614 124.213963 
L 187.714333 124.448331 
L 189.277853 124.683699 
L 189.947933 124.951802 
L 190.394653 124.891969 
L 190.841373 124.534473 
L 191.511452 123.507675 
L 192.181532 122.051918 
L 193.521692 118.359239 
L 194.415131 116.11208 
L 195.085211 114.856936 
L 195.755291 114.082351 
L 196.202011 113.886128 
L 196.648731 113.971458 
L 197.095451 114.342161 
L 197.542171 114.998683 
L 198.21225 116.52922 
L 200.66921 123.495428 
L 201.11593 124.172913 
L 201.562649 124.488899 
L 202.009369 124.391042 
L 202.456089 123.848437 
L 202.902809 122.887745 
L 204.466329 118.90523 
L 205.136408 117.944913 
L 206.253208 116.77386 
L 207.146648 116.092601 
L 207.816728 115.801554 
L 208.263447 115.80264 
L 208.710167 116.038967 
L 209.156887 116.558698 
L 209.826967 117.882142 
L 211.390487 121.694307 
L 211.837206 122.264317 
L 212.283926 122.538682 
L 212.954006 122.609986 
L 214.964246 122.39631 
L 215.410965 121.999408 
L 215.857685 121.173446 
L 216.304405 119.874494 
L 218.091285 113.626484 
L 218.314645 113.366928 
L 218.538005 113.297676 
L 218.761364 113.405815 
L 219.208084 114.072749 
L 219.878164 115.870508 
L 221.441684 120.740803 
L 222.111763 121.936746 
L 222.781843 122.565721 
L 223.451923 122.819971 
L 224.345363 122.831213 
L 225.015443 122.657027 
L 225.685522 122.264013 
L 226.355602 121.519656 
L 227.025682 120.331154 
L 228.812562 116.646735 
L 229.482641 115.895725 
L 230.376081 115.264447 
L 230.822801 115.096657 
L 231.269521 115.152793 
L 231.716241 115.568262 
L 232.162961 116.434448 
L 232.83304 118.475899 
L 233.72648 121.409737 
L 234.1732 122.40784 
L 234.61992 122.945398 
L 235.06664 123.066085 
L 235.51336 122.893577 
L 236.630159 122.252112 
L 237.076879 122.239131 
L 238.193679 122.507559 
L 238.640399 122.269278 
L 239.087119 121.601155 
L 239.533838 120.474328 
L 240.427278 117.344278 
L 241.097358 115.153742 
L 241.767438 113.748889 
L 242.214158 113.287786 
L 242.660878 113.161022 
L 243.107597 113.337621 
L 243.554317 113.830289 
L 244.001037 114.695889 
L 244.671117 116.750248 
L 246.904716 124.928146 
L 247.351436 125.672433 
L 247.798156 125.927302 
L 248.244876 125.753345 
L 248.691596 125.2536 
L 249.361676 124.06823 
L 250.031755 122.410752 
L 252.265355 115.908535 
L 252.712075 115.306382 
L 253.158794 115.128137 
L 253.605514 115.332 
L 255.615754 117.003135 
L 256.732553 117.552891 
L 257.402633 118.230456 
L 258.072713 119.247723 
L 258.966153 121.047639 
L 260.082952 123.302539 
L 260.753032 124.157794 
L 261.199752 124.438596 
L 261.646472 124.468525 
L 262.093192 124.201227 
L 262.539912 123.581229 
L 262.986632 122.588725 
L 263.656711 120.504387 
L 265.443591 114.424323 
L 265.890311 113.60475 
L 266.337031 113.223052 
L 266.783751 113.225236 
L 267.23047 113.522758 
L 267.90055 114.387126 
L 268.57063 115.730334 
L 269.24071 117.578665 
L 271.250949 123.746886 
L 271.697669 124.414754 
L 272.144389 124.701934 
L 272.591109 124.661107 
L 273.037829 124.362447 
L 273.707909 123.601932 
L 274.824708 121.927854 
L 275.718148 120.122842 
L 277.505027 116.025134 
L 278.175107 115.131355 
L 278.621827 114.855454 
L 279.068547 114.824646 
L 279.515267 115.008232 
L 280.185347 115.607929 
L 280.855426 116.522542 
L 281.748866 118.160176 
L 283.982466 122.683938 
L 284.652545 123.416511 
L 285.099265 123.635887 
L 285.545985 123.643957 
L 285.992705 123.456856 
L 286.662785 122.857871 
L 287.332865 121.940616 
L 288.449664 119.927362 
L 290.013184 117.074447 
L 290.683264 116.247153 
L 291.353343 115.80247 
L 291.800063 115.732961 
L 292.246783 115.841056 
L 292.916863 116.311866 
L 293.586943 117.100292 
L 294.703742 118.884274 
L 296.267262 121.452448 
L 296.937342 122.231061 
L 297.607422 122.683029 
L 298.054141 122.782021 
L 298.500861 122.717584 
L 299.170941 122.332705 
L 299.841021 121.650343 
L 300.957821 120.073987 
L 302.52134 117.78841 
L 303.19142 117.086579 
L 303.8615 116.667654 
L 304.53158 116.566066 
L 305.201659 116.780763 
L 305.871739 117.27805 
L 306.765179 118.270418 
L 309.222138 121.28569 
L 309.892218 121.761236 
L 310.562298 121.972786 
L 311.232378 121.903914 
L 311.902457 121.571103 
L 312.795897 120.796283 
L 315.922936 117.61863 
L 316.593016 117.348074 
L 317.263096 117.319581 
L 317.933176 117.527156 
L 318.826615 118.111244 
L 320.166775 119.367048 
L 321.506935 120.578212 
L 322.400374 121.104872 
L 323.070454 121.28019 
L 323.740534 121.250979 
L 324.410614 121.027753 
L 325.304054 120.48391 
L 328.654453 118.095172 
L 329.547892 117.930401 
L 330.441332 118.070337 
L 331.334772 118.470117 
L 332.898291 119.50533 
L 334.238451 120.322593 
L 335.131891 120.646723 
L 336.02533 120.72766 
L 336.91877 120.562153 
L 338.03557 120.080489 
L 340.939249 118.61548 
L 341.832689 118.442701 
L 342.726129 118.476681 
L 343.842928 118.777213 
L 345.853168 119.667991 
L 347.193327 120.144016 
L 348.310127 120.296822 
L 349.426927 120.193541 
L 350.767086 119.805921 
L 353.447405 118.932819 
L 354.564205 118.809216 
L 355.681005 118.888576 
L 357.244524 119.254003 
L 359.701484 119.876468 
L 361.041643 119.97729 
L 362.381803 119.856322 
L 367.519081 119.082663 
L 369.305961 119.259555 
L 373.10308 119.747092 
L 374.889959 119.691122 
L 380.473958 119.273228 
L 383.377637 119.478576 
L 383.377637 119.478576 
" clip-path="url(#p32cfeb8610)" style="fill: none; stroke: #1f77b4; stroke-width: 2; stroke-linecap: square"/>
   </g>
   <g id="line2d_52">
    <path d="M 48.561094 119.395555 
L 50.347973 119.312767 
L 53.475012 118.999519 
L 54.368452 119.161515 
L 55.485252 119.614145 
L 57.048771 120.589473 
L 58.165571 121.435289 
L 59.282371 122.547817 
L 60.62253 124.100124 
L 61.29261 124.490406 
L 61.73933 124.540844 
L 62.18605 124.38805 
L 63.972929 123.263098 
L 65.089729 122.260052 
L 65.536449 121.60645 
L 65.983169 120.527596 
L 66.429889 118.770824 
L 66.876608 115.93967 
L 67.323328 111.660763 
L 67.993408 102.358181 
L 69.333568 80.764347 
L 69.780288 76.786648 
L 70.003648 76.206359 
L 70.227007 76.771176 
L 70.450367 78.567029 
L 70.897087 85.778675 
L 71.567167 103.150493 
L 72.683967 132.606603 
L 73.130687 139.978122 
L 73.577407 144.304877 
L 74.694206 151.244867 
L 75.140926 157.393952 
L 76.257726 177.018527 
L 76.704446 180.531141 
L 76.927806 180.621095 
L 77.151165 179.527449 
L 77.374525 177.245748 
L 77.821245 169.277044 
L 78.491325 150.602904 
L 80.278205 96.054045 
L 81.841724 56.546044 
L 82.288444 48.215081 
L 82.735164 43.280384 
L 82.958524 42.406718 
L 83.181884 42.753659 
L 83.405244 44.400797 
L 83.851964 51.650955 
L 84.522043 70.290311 
L 85.638843 103.761633 
L 86.532283 123.879554 
L 87.872442 151.905142 
L 88.989242 177.69434 
L 89.435962 184.635803 
L 89.882682 188.536978 
L 90.106042 189.333749 
L 90.329402 189.380288 
L 90.552762 188.686838 
L 90.999481 185.161971 
L 91.446201 178.991193 
L 92.116281 165.040339 
L 92.786361 145.040754 
L 93.903161 102.271548 
L 94.7966 69.547029 
L 95.24332 58.234398 
L 95.69004 52.12458 
L 95.9134 51.059805 
L 96.13676 51.206293 
L 96.36012 52.450078 
L 96.80684 57.719989 
L 97.47692 70.14175 
L 101.050679 142.481852 
L 101.720758 153.082215 
L 102.167478 157.143215 
L 102.390838 158.122678 
L 102.614198 158.407732 
L 102.837558 158.039997 
L 103.060918 157.078883 
L 103.507638 153.663123 
L 104.177718 145.8966 
L 106.187957 120.088105 
L 106.634677 116.877019 
L 107.081397 115.023032 
L 107.528117 114.1539 
L 107.974837 113.456241 
L 108.421556 112.222692 
L 109.985076 106.430902 
L 110.431796 105.80313 
L 110.655156 105.688273 
L 110.878516 105.707678 
L 111.101876 105.865061 
L 111.548596 106.597859 
L 112.218675 108.553549 
L 114.898995 118.38456 
L 116.015794 123.493618 
L 117.355954 129.662411 
L 117.802674 131.012912 
L 118.026034 131.372757 
L 118.249394 131.476084 
L 118.472753 131.309279 
L 118.696113 130.876063 
L 119.142833 129.292113 
L 119.812913 125.679105 
L 120.706353 120.999743 
L 121.153073 119.669134 
L 121.599793 119.126751 
L 122.046512 119.097604 
L 122.493232 119.082493 
L 122.716592 118.912576 
L 123.163312 118.05451 
L 123.610032 116.525746 
L 125.396911 109.1525 
L 125.620271 108.826987 
L 125.843631 108.789981 
L 126.066991 109.052914 
L 126.513711 110.415588 
L 127.183791 113.972622 
L 129.19403 126.708049 
L 129.64075 128.011155 
L 129.86411 128.274929 
L 130.08747 128.283949 
L 130.31083 128.042643 
L 130.75755 126.80689 
L 131.20427 124.608462 
L 132.767789 115.487287 
L 133.437869 113.233201 
L 133.884589 112.142733 
L 134.331309 111.601697 
L 134.554669 111.654097 
L 134.778029 111.97992 
L 135.224749 113.547871 
L 135.671469 116.309161 
L 137.234988 127.740725 
L 137.681708 128.774473 
L 137.905068 128.81539 
L 138.128428 128.599148 
L 138.575148 127.592872 
L 141.478827 118.220401 
L 142.818986 112.036627 
L 143.265706 110.828706 
L 143.489066 110.521109 
L 143.712426 110.430775 
L 143.935786 110.55602 
L 144.382506 111.372233 
L 145.052586 113.465144 
L 146.169385 117.794878 
L 147.956265 125.38094 
L 148.179625 125.748174 
L 148.402985 125.900442 
L 148.626345 125.834993 
L 148.849705 125.554723 
L 149.296425 124.394838 
L 149.966504 121.592506 
L 150.636584 118.875124 
L 151.083304 117.767658 
L 151.530024 117.270681 
L 151.976744 117.173537 
L 152.423464 117.298594 
L 152.870184 117.637836 
L 153.316903 118.255562 
L 154.433703 120.010863 
L 154.880423 120.291684 
L 155.327143 120.296006 
L 155.773863 120.00396 
L 156.443942 119.075315 
L 156.890662 118.53696 
L 157.114022 118.436806 
L 157.337382 118.482939 
L 157.784102 118.985597 
L 158.900902 120.856149 
L 159.347622 121.169676 
L 161.357861 121.647202 
L 161.581221 121.581161 
L 161.804581 121.383134 
L 162.251301 120.533575 
L 164.03818 115.836309 
L 164.4849 115.646278 
L 164.93162 115.868126 
L 165.6017 116.559471 
L 166.27178 117.538429 
L 166.941859 118.985059 
L 167.835299 121.050287 
L 168.282019 121.669544 
L 168.505379 121.794082 
L 168.728739 121.775975 
L 168.952099 121.606152 
L 169.398819 120.810098 
L 170.068899 118.71725 
L 170.962338 115.753543 
L 171.409058 114.789014 
L 171.855778 114.263329 
L 172.302498 114.179812 
L 172.525858 114.317611 
L 172.972578 115.010811 
L 173.419298 116.331783 
L 173.866017 118.325465 
L 174.759457 123.709009 
L 175.652897 128.558535 
L 176.099617 129.987193 
L 176.322977 130.373901 
L 176.546337 130.525925 
L 176.769697 130.438183 
L 176.993057 130.112485 
L 177.439776 128.790359 
L 178.109856 125.456273 
L 180.120096 113.816274 
L 180.790175 111.418538 
L 181.236895 110.473035 
L 181.683615 110.108576 
L 181.906975 110.141117 
L 182.353695 110.576712 
L 182.800415 111.407602 
L 183.470495 113.230447 
L 184.363934 116.557222 
L 185.704094 121.705524 
L 186.150814 122.765942 
L 186.597534 123.33779 
L 187.044254 123.473639 
L 187.490973 123.286628 
L 189.054493 122.235084 
L 190.171293 121.713301 
L 192.404892 120.183674 
L 193.298332 119.048882 
L 194.191772 117.918775 
L 194.861851 117.38197 
L 195.531931 117.116497 
L 196.202011 117.056284 
L 196.872091 117.249522 
L 197.318811 117.580999 
L 197.98889 118.422828 
L 199.77577 121.122805 
L 200.66921 122.046302 
L 201.11593 122.253112 
L 201.562649 122.128458 
L 202.009369 121.620729 
L 202.679449 120.281915 
L 203.572889 118.387475 
L 204.019609 117.802354 
L 204.689689 117.362076 
L 205.806488 116.972819 
L 206.253208 117.002129 
L 206.923288 117.352606 
L 208.486807 118.658151 
L 209.156887 119.402701 
L 210.050327 120.80649 
L 210.720407 121.814292 
L 211.167127 122.191744 
L 211.613847 122.243052 
L 212.060566 122.030935 
L 215.187605 119.66454 
L 215.857685 118.435435 
L 217.421205 114.881242 
L 217.867925 114.465813 
L 218.091285 114.442258 
L 218.538005 114.747203 
L 218.984724 115.447273 
L 219.654804 117.076271 
L 221.665044 122.975439 
L 222.111763 123.550584 
L 222.558483 123.729393 
L 223.005203 123.561919 
L 223.675283 122.876626 
L 225.685522 120.160018 
L 226.578962 118.629217 
L 227.695762 116.693759 
L 228.142482 116.242317 
L 228.589202 116.041581 
L 229.259281 116.033842 
L 230.376081 116.168098 
L 230.822801 116.431389 
L 231.269521 117.01224 
L 231.716241 117.960953 
L 233.50312 122.6486 
L 233.94984 123.1435 
L 234.39656 123.285727 
L 234.84328 123.159149 
L 235.51336 122.614736 
L 237.746959 120.264015 
L 238.417039 119.67472 
L 239.087119 118.75433 
L 241.320718 115.03054 
L 241.767438 114.746083 
L 242.214158 114.654712 
L 242.660878 114.802729 
L 243.107597 115.264097 
L 243.554317 116.099008 
L 244.224397 118.033372 
L 245.787917 123.16605 
L 246.457996 124.482558 
L 246.904716 124.938747 
L 247.351436 125.039017 
L 247.798156 124.794611 
L 248.244876 124.232471 
L 248.914956 122.866251 
L 249.808395 120.256751 
L 251.148555 116.11076 
L 251.595275 115.257992 
L 252.041995 114.816997 
L 252.488715 114.792591 
L 252.935435 115.153238 
L 253.605514 116.213525 
L 255.169034 118.968438 
L 256.062474 120.102604 
L 256.732553 120.641192 
L 257.402633 120.915258 
L 258.742793 121.34679 
L 260.082952 121.953588 
L 260.753032 121.984257 
L 261.423112 121.744417 
L 261.869832 121.397322 
L 262.539912 120.493145 
L 263.209992 119.123007 
L 264.773511 115.635729 
L 265.220231 115.080793 
L 265.666951 114.854569 
L 266.113671 114.929214 
L 266.560391 115.241465 
L 267.23047 116.0388 
L 267.90055 117.207638 
L 268.79399 119.369823 
L 269.91079 122.241074 
L 270.580869 123.339176 
L 271.027589 123.654859 
L 271.474309 123.652454 
L 271.921029 123.393832 
L 272.591109 122.649242 
L 273.484549 121.192871 
L 275.718148 117.318425 
L 276.388228 116.569996 
L 277.058308 116.203795 
L 277.505027 116.175778 
L 278.175107 116.424325 
L 278.845187 116.976788 
L 279.738627 118.077067 
L 281.972226 121.160293 
L 282.642306 121.734892 
L 283.312386 122.024357 
L 283.982466 122.012273 
L 284.652545 121.710367 
L 285.322625 121.164471 
L 286.439425 119.920689 
L 288.002944 118.208422 
L 288.896384 117.60565 
L 289.566464 117.420742 
L 290.236544 117.474195 
L 290.906624 117.744077 
L 291.800063 118.362989 
L 294.703742 120.708011 
L 295.597182 121.002656 
L 296.267262 121.015395 
L 297.160702 120.766962 
L 298.277501 120.125054 
L 300.734461 118.531297 
L 301.6279 118.255083 
L 302.52134 118.240056 
L 303.41478 118.47019 
L 304.75494 119.116262 
L 306.765179 120.108407 
L 307.881979 120.357869 
L 308.775418 120.344701 
L 309.892218 120.093495 
L 311.902457 119.317077 
L 313.242617 118.895898 
L 314.359417 118.761919 
L 315.476216 118.854795 
L 317.039736 119.259264 
L 319.273335 119.846962 
L 320.613495 119.946203 
L 321.953655 119.819288 
L 326.644213 119.118512 
L 328.431093 119.251842 
L 332.228212 119.670427 
L 334.238451 119.591709 
L 338.48229 119.329474 
L 341.609329 119.469037 
L 344.513008 119.517991 
L 351.213806 119.462267 
L 355.010925 119.507581 
L 361.488363 119.42447 
L 366.178922 119.551025 
L 373.5498 119.41872 
L 377.793638 119.578647 
L 381.367397 119.387159 
L 383.377637 119.328449 
L 383.377637 119.328449 
" clip-path="url(#p32cfeb8610)" style="fill: none; stroke: #d62728; stroke-width: 2; stroke-linecap: square"/>
   </g>
   <g id="line2d_53">
    <path d="M 48.561094 119.395952 
L 383.377637 119.395952 
" clip-path="url(#p32cfeb8610)" style="fill: none; stroke: #404040; stroke-opacity: 0.9; stroke-linecap: square"/>
   </g>
   <g id="patch_3">
    <path d="M 48.561094 207.03355 
L 48.561094 27.272125 
" style="fill: none; stroke: #000000; stroke-width: 1.5; stroke-linejoin: miter; stroke-linecap: square"/>
   </g>
   <g id="patch_4">
    <path d="M 383.377637 207.03355 
L 383.377637 27.272125 
" style="fill: none; stroke: #000000; stroke-width: 1.5; stroke-linejoin: miter; stroke-linecap: square"/>
   </g>
   <g id="patch_5">
    <path d="M 48.561094 207.03355 
L 383.377637 207.03355 
" style="fill: none; stroke: #000000; stroke-width: 1.5; stroke-linejoin: miter; stroke-linecap: square"/>
   </g>
   <g id="patch_6">
    <path d="M 48.561094 27.272125 
L 383.377637 27.272125 
" style="fill: none; stroke: #000000; stroke-width: 1.5; stroke-linejoin: miter; stroke-linecap: square"/>
   </g>
   <g id="patch_7">
    <path d="M 108.969287 28.605553 
Q 97.043557 31.767668 85.98238 34.700546 
" style="fill: none; opacity: 0.9; stroke: #1f77b4; stroke-width: 0.8; stroke-linecap: round"/>
    <path d="M 89.923465 35.517764 
L 85.98238 34.700546 
L 89.000806 32.038008 
" style="fill: none; opacity: 0.9; stroke: #1f77b4; stroke-width: 0.8; stroke-linecap: round"/>
   </g>
   <g id="text_16">
    <g id="patch_8">
     <path d="M 89.181884 27.693099 
L 188.181884 27.693099 
Q 190.431884 27.693099 190.431884 25.443099 
L 190.431884 16.01138 
Q 190.431884 13.76138 188.181884 13.76138 
L 89.181884 13.76138 
Q 86.931884 13.76138 86.931884 16.01138 
L 86.931884 25.443099 
Q 86.931884 27.693099 89.181884 27.693099 
z
" style="fill: #ffffff; opacity: 0.85; stroke: #444444; stroke-width: 0.8; stroke-linejoin: miter"/>
    </g>
    <text style="fill: #1f77b4; font: 9px 'Microsoft YaHei', 'SimHei', 'SimSun', 'PingFang SC', 'Heiti SC', 'Noto Sans CJK SC', 'WenQuanYi Micro Hei', 'Source Han Sans CN', 'Arial Unicode MS', 'DejaVu Sans', sans-serif; text-anchor: start" x="89.181884" y="23.205755" transform="rotate(-0 89.181884 23.205755)">未设置粘滞阻尼器：63.2</text>
   </g>
   <g id="patch_9">
    <path d="M 101.089684 47.759093 
Q 92.982452 45.365813 85.733051 43.225767 
" style="fill: none; opacity: 0.9; stroke: #d62728; stroke-width: 0.8; stroke-linecap: round"/>
    <path d="M 88.676127 45.971364 
L 85.733051 43.225767 
L 89.695375 42.518665 
" style="fill: none; opacity: 0.9; stroke: #d62728; stroke-width: 0.8; stroke-linecap: round"/>
   </g>
   <g id="text_17">
    <g id="patch_10">
     <path d="M 82.958524 62.656718 
L 172.958524 62.656718 
Q 175.208524 62.656718 175.208524 60.406718 
L 175.208524 50.974999 
Q 175.208524 48.724999 172.958524 48.724999 
L 82.958524 48.724999 
Q 80.708524 48.724999 80.708524 50.974999 
L 80.708524 60.406718 
Q 80.708524 62.656718 82.958524 62.656718 
z
" style="fill: #ffffff; opacity: 0.85; stroke: #444444; stroke-width: 0.8; stroke-linejoin: miter"/>
    </g>
    <text style="fill: #d62728; font: 9px 'Microsoft YaHei', 'SimHei', 'SimSun', 'PingFang SC', 'Heiti SC', 'Noto Sans CJK SC', 'WenQuanYi Micro Hei', 'Source Han Sans CN', 'Arial Unicode MS', 'DejaVu Sans', sans-serif; text-anchor: start" x="82.958524" y="58.169374" transform="rotate(-0 82.958524 58.169374)">设置粘滞阻尼器：58.0</text>
   </g>
   <g id="text_18">
    <text style="font: 12.6px 'Microsoft YaHei', 'SimHei', 'SimSun', 'PingFang SC', 'Heiti SC', 'Noto Sans CJK SC', 'WenQuanYi Micro Hei', 'Source Han Sans CN', 'Arial Unicode MS', 'DejaVu Sans', sans-serif; text-anchor: middle" x="215.969365" y="17.272125" transform="rotate(-0 215.969365 17.272125)">时程曲线</text>
   </g>
   <g id="PathCollection_1">
    <defs>
     <path id="m1f857a2d47" d="M 0 2.645751 
C 0.701661 2.645751 1.374679 2.366978 1.870829 1.870829 
C 2.366978 1.374679 2.645751 0.701661 2.645751 0 
C 2.645751 -0.701661 2.366978 -1.374679 1.870829 -1.870829 
C 1.374679 -2.366978 0.701661 -2.645751 0 -2.645751 
C -0.701661 -2.645751 -1.374679 -2.366978 -1.870829 -1.870829 
C -2.366978 -1.374679 -2.645751 -0.701661 -2.645751 0 
C -2.645751 0.701661 -2.366978 1.374679 -1.870829 1.870829 
C -1.374679 2.366978 -0.701661 2.645751 0 2.645751 
z
" style="stroke: #1f77b4; stroke-width: 0.8"/>
    </defs>
    <g clip-path="url(#p32cfeb8610)">
     <use xlink:href="#m1f857a2d47" x="83.181884" y="35.443099" style="fill: #1f77b4; stroke: #1f77b4; stroke-width: 0.8"/>
    </g>
   </g>
   <g id="PathCollection_2">
    <defs>
     <path id="mda0f014f99" d="M 0 2.645751 
C 0.701661 2.645751 1.374679 2.366978 1.870829 1.870829 
C 2.366978 1.374679 2.645751 0.701661 2.645751 0 
C 2.645751 -0.701661 2.366978 -1.374679 1.870829 -1.870829 
C 1.374679 -2.366978 0.701661 -2.645751 0 -2.645751 
C -0.701661 -2.645751 -1.374679 -2.366978 -1.870829 -1.870829 
C -2.366978 -1.374679 -2.645751 -0.701661 -2.645751 0 
C -2.645751 0.701661 -2.366978 1.374679 -1.870829 1.870829 
C -1.374679 2.366978 -0.701661 2.645751 0 2.645751 
z
" style="stroke: #d62728; stroke-width: 0.8"/>
    </defs>
    <g clip-path="url(#p32cfeb8610)">
     <use xlink:href="#mda0f014f99" x="82.958524" y="42.406718" style="fill: #d62728; stroke: #d62728; stroke-width: 0.8"/>
    </g>
   </g>
   <g id="legend_1">
    <g id="patch_11">
     <path d="M 258.427637 68.179469 
L 376.027637 68.179469 
Q 378.127637 68.179469 378.127637 66.079469 
L 378.127637 34.622125 
Q 378.127637 32.522125 376.027637 32.522125 
L 258.427637 32.522125 
Q 256.327637 32.522125 256.327637 34.622125 
L 256.327637 66.079469 
Q 256.327637 68.179469 258.427637 68.179469 
z
" style="fill: #ffffff; opacity: 0.95; stroke: #444444; stroke-width: 0.8; stroke-linejoin: miter"/>
    </g>
    <g id="line2d_54">
     <path d="M 260.527637 41.440562 
L 271.027637 41.440562 
L 281.527637 41.440562 
" style="fill: none; stroke: #1f77b4; stroke-width: 2; stroke-linecap: square"/>
    </g>
    <g id="text_19">
     <text style="font: 10.5px 'Microsoft YaHei', 'SimHei', 'SimSun', 'PingFang SC', 'Heiti SC', 'Noto Sans CJK SC', 'WenQuanYi Micro Hei', 'Source Han Sans CN', 'Arial Unicode MS', 'DejaVu Sans', sans-serif; text-anchor: start" x="289.927637" y="45.115562" transform="rotate(-0 289.927637 45.115562)">未设置粘滞阻尼器</text>
    </g>
    <g id="line2d_55">
     <path d="M 260.527637 57.694234 
L 271.027637 57.694234 
L 281.527637 57.694234 
" style="fill: none; stroke: #d62728; stroke-width: 2; stroke-linecap: square"/>
    </g>
    <g id="text_20">
     <text style="font: 10.5px 'Microsoft YaHei', 'SimHei', 'SimSun', 'PingFang SC', 'Heiti SC', 'Noto Sans CJK SC', 'WenQuanYi Micro Hei', 'Source Han Sans CN', 'Arial Unicode MS', 'DejaVu Sans', sans-serif; text-anchor: start" x="289.927637" y="61.369234" transform="rotate(-0 289.927637 61.369234)">设置粘滞阻尼器</text>
    </g>
   </g>
  </g>
 </g>
 <defs>
  <clipPath id="p32cfeb8610">
   <rect x="48.561094" y="27.272125" width="334.816543" height="179.761425"/>
  </clipPath>
 </defs>
</svg>
