<?xml version="1.0" encoding="utf-8" standalone="no"?>
<!DOCTYPE svg PUBLIC "-//W3C//DTD SVG 1.1//EN"
  "http://www.w3.org/Graphics/SVG/1.1/DTD/svg11.dtd">
<svg xmlns:xlink="http://www.w3.org/1999/xlink" width="446.269245pt" height="247.832485pt" viewBox="0 0 446.269245 247.832485" xmlns="http://www.w3.org/2000/svg" version="1.1">
 <metadata>
  <rdf:RDF xmlns:dc="http://purl.org/dc/elements/1.1/" xmlns:cc="http://creativecommons.org/ns#" xmlns:rdf="http://www.w3.org/1999/02/22-rdf-syntax-ns#">
   <cc:Work>
    <dc:type rdf:resource="http://purl.org/dc/dcmitype/StillImage"/>
    <dc:date>2025-08-13T11:25:56.942732</dc:date>
    <dc:format>image/svg+xml</dc:format>
    <dc:creator>
     <cc:Agent>
      <dc:title>Matplotlib v3.9.1.post1, https://matplotlib.org/</dc:title>
     </cc:Agent>
    </dc:creator>
   </cc:Work>
  </rdf:RDF>
 </metadata>
 <defs>
  <style type="text/css">*{stroke-linejoin: round; stroke-linecap: butt}</style>
 </defs>
 <g id="figure_1">
  <g id="patch_1">
   <path d="M 0 247.832485 
L 446.269245 247.832485 
L 446.269245 0 
L 0 0 
z
" style="fill: #ffffff"/>
  </g>
  <g id="axes_1">
   <g id="patch_2">
    <path d="M 44.210938 210.276235 
L 439.069245 210.276235 
L 439.069245 22.318125 
L 44.210938 22.318125 
z
" style="fill: #ffffff"/>
   </g>
   <g id="matplotlib.axis_1">
    <g id="xtick_1">
     <g id="line2d_1">
      <path d="M 61.919575 210.276235 
L 61.919575 22.318125 
" clip-path="url(#pb08e670718)" style="fill: none; stroke-dasharray: 2.96,1.28; stroke-dashoffset: 0; stroke: #b0b0b0; stroke-opacity: 0.35; stroke-width: 0.8"/>
     </g>
     <g id="line2d_2">
      <defs>
       <path id="m433015d856" d="M 0 0 
L 0 3.5 
" style="stroke: #000000; stroke-width: 0.8"/>
      </defs>
      <g>
       <use xlink:href="#m433015d856" x="61.919575" y="210.276235" style="stroke: #000000; stroke-width: 0.8"/>
      </g>
     </g>
     <g id="text_1">
      <!-- 0 -->
      <g transform="translate(58.738325 224.874673) scale(0.1 -0.1)">
       <defs>
        <path id="DejaVuSans-30" d="M 2034 4250 
Q 1547 4250 1301 3770 
Q 1056 3291 1056 2328 
Q 1056 1369 1301 889 
Q 1547 409 2034 409 
Q 2525 409 2770 889 
Q 3016 1369 3016 2328 
Q 3016 3291 2770 3770 
Q 2525 4250 2034 4250 
z
M 2034 4750 
Q 2819 4750 3233 4129 
Q 3647 3509 3647 2328 
Q 3647 1150 3233 529 
Q 2819 -91 2034 -91 
Q 1250 -91 836 529 
Q 422 1150 422 2328 
Q 422 3509 836 4129 
Q 1250 4750 2034 4750 
z
" transform="scale(0.015625)"/>
       </defs>
       <use xlink:href="#DejaVuSans-30"/>
      </g>
     </g>
    </g>
    <g id="xtick_2">
     <g id="line2d_3">
      <path d="M 121.786502 210.276235 
L 121.786502 22.318125 
" clip-path="url(#pb08e670718)" style="fill: none; stroke-dasharray: 2.96,1.28; stroke-dashoffset: 0; stroke: #b0b0b0; stroke-opacity: 0.35; stroke-width: 0.8"/>
     </g>
     <g id="line2d_4">
      <g>
       <use xlink:href="#m433015d856" x="121.786502" y="210.276235" style="stroke: #000000; stroke-width: 0.8"/>
      </g>
     </g>
     <g id="text_2">
      <!-- 5 -->
      <g transform="translate(118.605252 224.874673) scale(0.1 -0.1)">
       <defs>
        <path id="DejaVuSans-35" d="M 691 4666 
L 3169 4666 
L 3169 4134 
L 1269 4134 
L 1269 2991 
Q 1406 3038 1543 3061 
Q 1681 3084 1819 3084 
Q 2600 3084 3056 2656 
Q 3513 2228 3513 1497 
Q 3513 744 3044 326 
Q 2575 -91 1722 -91 
Q 1428 -91 1123 -41 
Q 819 9 494 109 
L 494 744 
Q 775 591 1075 516 
Q 1375 441 1709 441 
Q 2250 441 2565 725 
Q 2881 1009 2881 1497 
Q 2881 1984 2565 2268 
Q 2250 2553 1709 2553 
Q 1456 2553 1204 2497 
Q 953 2441 691 2322 
L 691 4666 
z
" transform="scale(0.015625)"/>
       </defs>
       <use xlink:href="#DejaVuSans-35"/>
      </g>
     </g>
    </g>
    <g id="xtick_3">
     <g id="line2d_5">
      <path d="M 181.65343 210.276235 
L 181.65343 22.318125 
" clip-path="url(#pb08e670718)" style="fill: none; stroke-dasharray: 2.96,1.28; stroke-dashoffset: 0; stroke: #b0b0b0; stroke-opacity: 0.35; stroke-width: 0.8"/>
     </g>
     <g id="line2d_6">
      <g>
       <use xlink:href="#m433015d856" x="181.65343" y="210.276235" style="stroke: #000000; stroke-width: 0.8"/>
      </g>
     </g>
     <g id="text_3">
      <!-- 10 -->
      <g transform="translate(175.29093 224.874673) scale(0.1 -0.1)">
       <defs>
        <path id="DejaVuSans-31" d="M 794 531 
L 1825 531 
L 1825 4091 
L 703 3866 
L 703 4441 
L 1819 4666 
L 2450 4666 
L 2450 531 
L 3481 531 
L 3481 0 
L 794 0 
L 794 531 
z
" transform="scale(0.015625)"/>
       </defs>
       <use xlink:href="#DejaVuSans-31"/>
       <use xlink:href="#DejaVuSans-30" x="63.623047"/>
      </g>
     </g>
    </g>
    <g id="xtick_4">
     <g id="line2d_7">
      <path d="M 241.520357 210.276235 
L 241.520357 22.318125 
" clip-path="url(#pb08e670718)" style="fill: none; stroke-dasharray: 2.96,1.28; stroke-dashoffset: 0; stroke: #b0b0b0; stroke-opacity: 0.35; stroke-width: 0.8"/>
     </g>
     <g id="line2d_8">
      <g>
       <use xlink:href="#m433015d856" x="241.520357" y="210.276235" style="stroke: #000000; stroke-width: 0.8"/>
      </g>
     </g>
     <g id="text_4">
      <!-- 15 -->
      <g transform="translate(235.157857 224.874673) scale(0.1 -0.1)">
       <use xlink:href="#DejaVuSans-31"/>
       <use xlink:href="#DejaVuSans-35" x="63.623047"/>
      </g>
     </g>
    </g>
    <g id="xtick_5">
     <g id="line2d_9">
      <path d="M 301.387285 210.276235 
L 301.387285 22.318125 
" clip-path="url(#pb08e670718)" style="fill: none; stroke-dasharray: 2.96,1.28; stroke-dashoffset: 0; stroke: #b0b0b0; stroke-opacity: 0.35; stroke-width: 0.8"/>
     </g>
     <g id="line2d_10">
      <g>
       <use xlink:href="#m433015d856" x="301.387285" y="210.276235" style="stroke: #000000; stroke-width: 0.8"/>
      </g>
     </g>
     <g id="text_5">
      <!-- 20 -->
      <g transform="translate(295.024785 224.874673) scale(0.1 -0.1)">
       <defs>
        <path id="DejaVuSans-32" d="M 1228 531 
L 3431 531 
L 3431 0 
L 469 0 
L 469 531 
Q 828 903 1448 1529 
Q 2069 2156 2228 2338 
Q 2531 2678 2651 2914 
Q 2772 3150 2772 3378 
Q 2772 3750 2511 3984 
Q 2250 4219 1831 4219 
Q 1534 4219 1204 4116 
Q 875 4013 500 3803 
L 500 4441 
Q 881 4594 1212 4672 
Q 1544 4750 1819 4750 
Q 2544 4750 2975 4387 
Q 3406 4025 3406 3419 
Q 3406 3131 3298 2873 
Q 3191 2616 2906 2266 
Q 2828 2175 2409 1742 
Q 1991 1309 1228 531 
z
" transform="scale(0.015625)"/>
       </defs>
       <use xlink:href="#DejaVuSans-32"/>
       <use xlink:href="#DejaVuSans-30" x="63.623047"/>
      </g>
     </g>
    </g>
    <g id="xtick_6">
     <g id="line2d_11">
      <path d="M 361.254212 210.276235 
L 361.254212 22.318125 
" clip-path="url(#pb08e670718)" style="fill: none; stroke-dasharray: 2.96,1.28; stroke-dashoffset: 0; stroke: #b0b0b0; stroke-opacity: 0.35; stroke-width: 0.8"/>
     </g>
     <g id="line2d_12">
      <g>
       <use xlink:href="#m433015d856" x="361.254212" y="210.276235" style="stroke: #000000; stroke-width: 0.8"/>
      </g>
     </g>
     <g id="text_6">
      <!-- 25 -->
      <g transform="translate(354.891712 224.874673) scale(0.1 -0.1)">
       <use xlink:href="#DejaVuSans-32"/>
       <use xlink:href="#DejaVuSans-35" x="63.623047"/>
      </g>
     </g>
    </g>
    <g id="xtick_7">
     <g id="line2d_13">
      <path d="M 421.12114 210.276235 
L 421.12114 22.318125 
" clip-path="url(#pb08e670718)" style="fill: none; stroke-dasharray: 2.96,1.28; stroke-dashoffset: 0; stroke: #b0b0b0; stroke-opacity: 0.35; stroke-width: 0.8"/>
     </g>
     <g id="line2d_14">
      <g>
       <use xlink:href="#m433015d856" x="421.12114" y="210.276235" style="stroke: #000000; stroke-width: 0.8"/>
      </g>
     </g>
     <g id="text_7">
      <!-- 30 -->
      <g transform="translate(414.75864 224.874673) scale(0.1 -0.1)">
       <defs>
        <path id="DejaVuSans-33" d="M 2597 2516 
Q 3050 2419 3304 2112 
Q 3559 1806 3559 1356 
Q 3559 666 3084 287 
Q 2609 -91 1734 -91 
Q 1441 -91 1130 -33 
Q 819 25 488 141 
L 488 750 
Q 750 597 1062 519 
Q 1375 441 1716 441 
Q 2309 441 2620 675 
Q 2931 909 2931 1356 
Q 2931 1769 2642 2001 
Q 2353 2234 1838 2234 
L 1294 2234 
L 1294 2753 
L 1863 2753 
Q 2328 2753 2575 2939 
Q 2822 3125 2822 3475 
Q 2822 3834 2567 4026 
Q 2313 4219 1838 4219 
Q 1578 4219 1281 4162 
Q 984 4106 628 3988 
L 628 4550 
Q 988 4650 1302 4700 
Q 1616 4750 1894 4750 
Q 2613 4750 3031 4423 
Q 3450 4097 3450 3541 
Q 3450 3153 3228 2886 
Q 3006 2619 2597 2516 
z
" transform="scale(0.015625)"/>
       </defs>
       <use xlink:href="#DejaVuSans-33"/>
       <use xlink:href="#DejaVuSans-30" x="63.623047"/>
      </g>
     </g>
    </g>
    <g id="xtick_8">
     <g id="line2d_15">
      <defs>
       <path id="m08a27ed963" d="M 0 0 
L 0 2 
" style="stroke: #000000; stroke-width: 0.6"/>
      </defs>
      <g>
       <use xlink:href="#m08a27ed963" x="49.946189" y="210.276235" style="stroke: #000000; stroke-width: 0.6"/>
      </g>
     </g>
    </g>
    <g id="xtick_9">
     <g id="line2d_16">
      <g>
       <use xlink:href="#m08a27ed963" x="73.89296" y="210.276235" style="stroke: #000000; stroke-width: 0.6"/>
      </g>
     </g>
    </g>
    <g id="xtick_10">
     <g id="line2d_17">
      <g>
       <use xlink:href="#m08a27ed963" x="85.866346" y="210.276235" style="stroke: #000000; stroke-width: 0.6"/>
      </g>
     </g>
    </g>
    <g id="xtick_11">
     <g id="line2d_18">
      <g>
       <use xlink:href="#m08a27ed963" x="97.839731" y="210.276235" style="stroke: #000000; stroke-width: 0.6"/>
      </g>
     </g>
    </g>
    <g id="xtick_12">
     <g id="line2d_19">
      <g>
       <use xlink:href="#m08a27ed963" x="109.813117" y="210.276235" style="stroke: #000000; stroke-width: 0.6"/>
      </g>
     </g>
    </g>
    <g id="xtick_13">
     <g id="line2d_20">
      <g>
       <use xlink:href="#m08a27ed963" x="133.759888" y="210.276235" style="stroke: #000000; stroke-width: 0.6"/>
      </g>
     </g>
    </g>
    <g id="xtick_14">
     <g id="line2d_21">
      <g>
       <use xlink:href="#m08a27ed963" x="145.733273" y="210.276235" style="stroke: #000000; stroke-width: 0.6"/>
      </g>
     </g>
    </g>
    <g id="xtick_15">
     <g id="line2d_22">
      <g>
       <use xlink:href="#m08a27ed963" x="157.706659" y="210.276235" style="stroke: #000000; stroke-width: 0.6"/>
      </g>
     </g>
    </g>
    <g id="xtick_16">
     <g id="line2d_23">
      <g>
       <use xlink:href="#m08a27ed963" x="169.680044" y="210.276235" style="stroke: #000000; stroke-width: 0.6"/>
      </g>
     </g>
    </g>
    <g id="xtick_17">
     <g id="line2d_24">
      <g>
       <use xlink:href="#m08a27ed963" x="193.626815" y="210.276235" style="stroke: #000000; stroke-width: 0.6"/>
      </g>
     </g>
    </g>
    <g id="xtick_18">
     <g id="line2d_25">
      <g>
       <use xlink:href="#m08a27ed963" x="205.600201" y="210.276235" style="stroke: #000000; stroke-width: 0.6"/>
      </g>
     </g>
    </g>
    <g id="xtick_19">
     <g id="line2d_26">
      <g>
       <use xlink:href="#m08a27ed963" x="217.573586" y="210.276235" style="stroke: #000000; stroke-width: 0.6"/>
      </g>
     </g>
    </g>
    <g id="xtick_20">
     <g id="line2d_27">
      <g>
       <use xlink:href="#m08a27ed963" x="229.546972" y="210.276235" style="stroke: #000000; stroke-width: 0.6"/>
      </g>
     </g>
    </g>
    <g id="xtick_21">
     <g id="line2d_28">
      <g>
       <use xlink:href="#m08a27ed963" x="253.493743" y="210.276235" style="stroke: #000000; stroke-width: 0.6"/>
      </g>
     </g>
    </g>
    <g id="xtick_22">
     <g id="line2d_29">
      <g>
       <use xlink:href="#m08a27ed963" x="265.467128" y="210.276235" style="stroke: #000000; stroke-width: 0.6"/>
      </g>
     </g>
    </g>
    <g id="xtick_23">
     <g id="line2d_30">
      <g>
       <use xlink:href="#m08a27ed963" x="277.440514" y="210.276235" style="stroke: #000000; stroke-width: 0.6"/>
      </g>
     </g>
    </g>
    <g id="xtick_24">
     <g id="line2d_31">
      <g>
       <use xlink:href="#m08a27ed963" x="289.413899" y="210.276235" style="stroke: #000000; stroke-width: 0.6"/>
      </g>
     </g>
    </g>
    <g id="xtick_25">
     <g id="line2d_32">
      <g>
       <use xlink:href="#m08a27ed963" x="313.36067" y="210.276235" style="stroke: #000000; stroke-width: 0.6"/>
      </g>
     </g>
    </g>
    <g id="xtick_26">
     <g id="line2d_33">
      <g>
       <use xlink:href="#m08a27ed963" x="325.334056" y="210.276235" style="stroke: #000000; stroke-width: 0.6"/>
      </g>
     </g>
    </g>
    <g id="xtick_27">
     <g id="line2d_34">
      <g>
       <use xlink:href="#m08a27ed963" x="337.307441" y="210.276235" style="stroke: #000000; stroke-width: 0.6"/>
      </g>
     </g>
    </g>
    <g id="xtick_28">
     <g id="line2d_35">
      <g>
       <use xlink:href="#m08a27ed963" x="349.280827" y="210.276235" style="stroke: #000000; stroke-width: 0.6"/>
      </g>
     </g>
    </g>
    <g id="xtick_29">
     <g id="line2d_36">
      <g>
       <use xlink:href="#m08a27ed963" x="373.227598" y="210.276235" style="stroke: #000000; stroke-width: 0.6"/>
      </g>
     </g>
    </g>
    <g id="xtick_30">
     <g id="line2d_37">
      <g>
       <use xlink:href="#m08a27ed963" x="385.200983" y="210.276235" style="stroke: #000000; stroke-width: 0.6"/>
      </g>
     </g>
    </g>
    <g id="xtick_31">
     <g id="line2d_38">
      <g>
       <use xlink:href="#m08a27ed963" x="397.174369" y="210.276235" style="stroke: #000000; stroke-width: 0.6"/>
      </g>
     </g>
    </g>
    <g id="xtick_32">
     <g id="line2d_39">
      <g>
       <use xlink:href="#m08a27ed963" x="409.147754" y="210.276235" style="stroke: #000000; stroke-width: 0.6"/>
      </g>
     </g>
    </g>
    <g id="xtick_33">
     <g id="line2d_40">
      <g>
       <use xlink:href="#m08a27ed963" x="433.094525" y="210.276235" style="stroke: #000000; stroke-width: 0.6"/>
      </g>
     </g>
    </g>
    <g id="text_8">
     <!-- 时间 -->
     <g transform="translate(235.638529 238.552798) scale(0.1 -0.1)">
      <defs>
       <path id="DejaVuSans-65f6" d="M 319 -1131 
L 319 4513 
L 3519 4513 
L 3519 -1131 
L 319 -1131 
z
M 678 -775 
L 3163 -775 
L 3163 4153 
L 678 4153 
L 678 -775 
z
" transform="scale(0.015625)"/>
       <path id="DejaVuSans-95f4" d="M 319 -1131 
L 319 4513 
L 3519 4513 
L 3519 -1131 
L 319 -1131 
z
M 678 -775 
L 3163 -775 
L 3163 4153 
L 678 4153 
L 678 -775 
z
" transform="scale(0.015625)"/>
      </defs>
      <use xlink:href="#DejaVuSans-65f6"/>
      <use xlink:href="#DejaVuSans-95f4" x="60.009766"/>
     </g>
    </g>
   </g>
   <g id="matplotlib.axis_2">
    <g id="ytick_1">
     <g id="line2d_41">
      <path d="M 44.210938 201.923675 
L 439.069245 201.923675 
" clip-path="url(#pb08e670718)" style="fill: none; stroke-dasharray: 2.96,1.28; stroke-dashoffset: 0; stroke: #b0b0b0; stroke-opacity: 0.35; stroke-width: 0.8"/>
     </g>
     <g id="line2d_42">
      <defs>
       <path id="md4f7abfbb2" d="M 0 0 
L -3.5 0 
" style="stroke: #000000; stroke-width: 0.8"/>
      </defs>
      <g>
       <use xlink:href="#md4f7abfbb2" x="44.210938" y="201.923675" style="stroke: #000000; stroke-width: 0.8"/>
      </g>
     </g>
     <g id="text_9">
      <!-- -60 -->
      <g transform="translate(20.878125 205.722894) scale(0.1 -0.1)">
       <defs>
        <path id="DejaVuSans-2d" d="M 313 2009 
L 1997 2009 
L 1997 1497 
L 313 1497 
L 313 2009 
z
" transform="scale(0.015625)"/>
        <path id="DejaVuSans-36" d="M 2113 2584 
Q 1688 2584 1439 2293 
Q 1191 2003 1191 1497 
Q 1191 994 1439 701 
Q 1688 409 2113 409 
Q 2538 409 2786 701 
Q 3034 994 3034 1497 
Q 3034 2003 2786 2293 
Q 2538 2584 2113 2584 
z
M 3366 4563 
L 3366 3988 
Q 3128 4100 2886 4159 
Q 2644 4219 2406 4219 
Q 1781 4219 1451 3797 
Q 1122 3375 1075 2522 
Q 1259 2794 1537 2939 
Q 1816 3084 2150 3084 
Q 2853 3084 3261 2657 
Q 3669 2231 3669 1497 
Q 3669 778 3244 343 
Q 2819 -91 2113 -91 
Q 1303 -91 875 529 
Q 447 1150 447 2328 
Q 447 3434 972 4092 
Q 1497 4750 2381 4750 
Q 2619 4750 2861 4703 
Q 3103 4656 3366 4563 
z
" transform="scale(0.015625)"/>
       </defs>
       <use xlink:href="#DejaVuSans-2d"/>
       <use xlink:href="#DejaVuSans-36" x="36.083984"/>
       <use xlink:href="#DejaVuSans-30" x="99.707031"/>
      </g>
     </g>
    </g>
    <g id="ytick_2">
     <g id="line2d_43">
      <path d="M 44.210938 174.163308 
L 439.069245 174.163308 
" clip-path="url(#pb08e670718)" style="fill: none; stroke-dasharray: 2.96,1.28; stroke-dashoffset: 0; stroke: #b0b0b0; stroke-opacity: 0.35; stroke-width: 0.8"/>
     </g>
     <g id="line2d_44">
      <g>
       <use xlink:href="#md4f7abfbb2" x="44.210938" y="174.163308" style="stroke: #000000; stroke-width: 0.8"/>
      </g>
     </g>
     <g id="text_10">
      <!-- -40 -->
      <g transform="translate(20.878125 177.962527) scale(0.1 -0.1)">
       <defs>
        <path id="DejaVuSans-34" d="M 2419 4116 
L 825 1625 
L 2419 1625 
L 2419 4116 
z
M 2253 4666 
L 3047 4666 
L 3047 1625 
L 3713 1625 
L 3713 1100 
L 3047 1100 
L 3047 0 
L 2419 0 
L 2419 1100 
L 313 1100 
L 313 1709 
L 2253 4666 
z
" transform="scale(0.015625)"/>
       </defs>
       <use xlink:href="#DejaVuSans-2d"/>
       <use xlink:href="#DejaVuSans-34" x="36.083984"/>
       <use xlink:href="#DejaVuSans-30" x="99.707031"/>
      </g>
     </g>
    </g>
    <g id="ytick_3">
     <g id="line2d_45">
      <path d="M 44.210938 146.402942 
L 439.069245 146.402942 
" clip-path="url(#pb08e670718)" style="fill: none; stroke-dasharray: 2.96,1.28; stroke-dashoffset: 0; stroke: #b0b0b0; stroke-opacity: 0.35; stroke-width: 0.8"/>
     </g>
     <g id="line2d_46">
      <g>
       <use xlink:href="#md4f7abfbb2" x="44.210938" y="146.402942" style="stroke: #000000; stroke-width: 0.8"/>
      </g>
     </g>
     <g id="text_11">
      <!-- -20 -->
      <g transform="translate(20.878125 150.20216) scale(0.1 -0.1)">
       <use xlink:href="#DejaVuSans-2d"/>
       <use xlink:href="#DejaVuSans-32" x="36.083984"/>
       <use xlink:href="#DejaVuSans-30" x="99.707031"/>
      </g>
     </g>
    </g>
    <g id="ytick_4">
     <g id="line2d_47">
      <path d="M 44.210938 118.642575 
L 439.069245 118.642575 
" clip-path="url(#pb08e670718)" style="fill: none; stroke-dasharray: 2.96,1.28; stroke-dashoffset: 0; stroke: #b0b0b0; stroke-opacity: 0.35; stroke-width: 0.8"/>
     </g>
     <g id="line2d_48">
      <g>
       <use xlink:href="#md4f7abfbb2" x="44.210938" y="118.642575" style="stroke: #000000; stroke-width: 0.8"/>
      </g>
     </g>
     <g id="text_12">
      <!-- 0 -->
      <g transform="translate(30.848437 122.441794) scale(0.1 -0.1)">
       <use xlink:href="#DejaVuSans-30"/>
      </g>
     </g>
    </g>
    <g id="ytick_5">
     <g id="line2d_49">
      <path d="M 44.210938 90.882209 
L 439.069245 90.882209 
" clip-path="url(#pb08e670718)" style="fill: none; stroke-dasharray: 2.96,1.28; stroke-dashoffset: 0; stroke: #b0b0b0; stroke-opacity: 0.35; stroke-width: 0.8"/>
     </g>
     <g id="line2d_50">
      <g>
       <use xlink:href="#md4f7abfbb2" x="44.210938" y="90.882209" style="stroke: #000000; stroke-width: 0.8"/>
      </g>
     </g>
     <g id="text_13">
      <!-- 20 -->
      <g transform="translate(24.485937 94.681427) scale(0.1 -0.1)">
       <use xlink:href="#DejaVuSans-32"/>
       <use xlink:href="#DejaVuSans-30" x="63.623047"/>
      </g>
     </g>
    </g>
    <g id="ytick_6">
     <g id="line2d_51">
      <path d="M 44.210938 63.121842 
L 439.069245 63.121842 
" clip-path="url(#pb08e670718)" style="fill: none; stroke-dasharray: 2.96,1.28; stroke-dashoffset: 0; stroke: #b0b0b0; stroke-opacity: 0.35; stroke-width: 0.8"/>
     </g>
     <g id="line2d_52">
      <g>
       <use xlink:href="#md4f7abfbb2" x="44.210938" y="63.121842" style="stroke: #000000; stroke-width: 0.8"/>
      </g>
     </g>
     <g id="text_14">
      <!-- 40 -->
      <g transform="translate(24.485937 66.921061) scale(0.1 -0.1)">
       <use xlink:href="#DejaVuSans-34"/>
       <use xlink:href="#DejaVuSans-30" x="63.623047"/>
      </g>
     </g>
    </g>
    <g id="ytick_7">
     <g id="line2d_53">
      <path d="M 44.210938 35.361476 
L 439.069245 35.361476 
" clip-path="url(#pb08e670718)" style="fill: none; stroke-dasharray: 2.96,1.28; stroke-dashoffset: 0; stroke: #b0b0b0; stroke-opacity: 0.35; stroke-width: 0.8"/>
     </g>
     <g id="line2d_54">
      <g>
       <use xlink:href="#md4f7abfbb2" x="44.210938" y="35.361476" style="stroke: #000000; stroke-width: 0.8"/>
      </g>
     </g>
     <g id="text_15">
      <!-- 60 -->
      <g transform="translate(24.485937 39.160694) scale(0.1 -0.1)">
       <use xlink:href="#DejaVuSans-36"/>
       <use xlink:href="#DejaVuSans-30" x="63.623047"/>
      </g>
     </g>
    </g>
    <g id="ytick_8">
     <g id="line2d_55">
      <defs>
       <path id="mefbe083795" d="M 0 0 
L -2 0 
" style="stroke: #000000; stroke-width: 0.6"/>
      </defs>
      <g>
       <use xlink:href="#mefbe083795" x="44.210938" y="208.863766" style="stroke: #000000; stroke-width: 0.6"/>
      </g>
     </g>
    </g>
    <g id="ytick_9">
     <g id="line2d_56">
      <g>
       <use xlink:href="#mefbe083795" x="44.210938" y="194.983583" style="stroke: #000000; stroke-width: 0.6"/>
      </g>
     </g>
    </g>
    <g id="ytick_10">
     <g id="line2d_57">
      <g>
       <use xlink:href="#mefbe083795" x="44.210938" y="188.043492" style="stroke: #000000; stroke-width: 0.6"/>
      </g>
     </g>
    </g>
    <g id="ytick_11">
     <g id="line2d_58">
      <g>
       <use xlink:href="#mefbe083795" x="44.210938" y="181.1034" style="stroke: #000000; stroke-width: 0.6"/>
      </g>
     </g>
    </g>
    <g id="ytick_12">
     <g id="line2d_59">
      <g>
       <use xlink:href="#mefbe083795" x="44.210938" y="167.223217" style="stroke: #000000; stroke-width: 0.6"/>
      </g>
     </g>
    </g>
    <g id="ytick_13">
     <g id="line2d_60">
      <g>
       <use xlink:href="#mefbe083795" x="44.210938" y="160.283125" style="stroke: #000000; stroke-width: 0.6"/>
      </g>
     </g>
    </g>
    <g id="ytick_14">
     <g id="line2d_61">
      <g>
       <use xlink:href="#mefbe083795" x="44.210938" y="153.343033" style="stroke: #000000; stroke-width: 0.6"/>
      </g>
     </g>
    </g>
    <g id="ytick_15">
     <g id="line2d_62">
      <g>
       <use xlink:href="#mefbe083795" x="44.210938" y="139.46285" style="stroke: #000000; stroke-width: 0.6"/>
      </g>
     </g>
    </g>
    <g id="ytick_16">
     <g id="line2d_63">
      <g>
       <use xlink:href="#mefbe083795" x="44.210938" y="132.522758" style="stroke: #000000; stroke-width: 0.6"/>
      </g>
     </g>
    </g>
    <g id="ytick_17">
     <g id="line2d_64">
      <g>
       <use xlink:href="#mefbe083795" x="44.210938" y="125.582667" style="stroke: #000000; stroke-width: 0.6"/>
      </g>
     </g>
    </g>
    <g id="ytick_18">
     <g id="line2d_65">
      <g>
       <use xlink:href="#mefbe083795" x="44.210938" y="111.702484" style="stroke: #000000; stroke-width: 0.6"/>
      </g>
     </g>
    </g>
    <g id="ytick_19">
     <g id="line2d_66">
      <g>
       <use xlink:href="#mefbe083795" x="44.210938" y="104.762392" style="stroke: #000000; stroke-width: 0.6"/>
      </g>
     </g>
    </g>
    <g id="ytick_20">
     <g id="line2d_67">
      <g>
       <use xlink:href="#mefbe083795" x="44.210938" y="97.8223" style="stroke: #000000; stroke-width: 0.6"/>
      </g>
     </g>
    </g>
    <g id="ytick_21">
     <g id="line2d_68">
      <g>
       <use xlink:href="#mefbe083795" x="44.210938" y="83.942117" style="stroke: #000000; stroke-width: 0.6"/>
      </g>
     </g>
    </g>
    <g id="ytick_22">
     <g id="line2d_69">
      <g>
       <use xlink:href="#mefbe083795" x="44.210938" y="77.002025" style="stroke: #000000; stroke-width: 0.6"/>
      </g>
     </g>
    </g>
    <g id="ytick_23">
     <g id="line2d_70">
      <g>
       <use xlink:href="#mefbe083795" x="44.210938" y="70.061934" style="stroke: #000000; stroke-width: 0.6"/>
      </g>
     </g>
    </g>
    <g id="ytick_24">
     <g id="line2d_71">
      <g>
       <use xlink:href="#mefbe083795" x="44.210938" y="56.18175" style="stroke: #000000; stroke-width: 0.6"/>
      </g>
     </g>
    </g>
    <g id="ytick_25">
     <g id="line2d_72">
      <g>
       <use xlink:href="#mefbe083795" x="44.210938" y="49.241659" style="stroke: #000000; stroke-width: 0.6"/>
      </g>
     </g>
    </g>
    <g id="ytick_26">
     <g id="line2d_73">
      <g>
       <use xlink:href="#mefbe083795" x="44.210938" y="42.301567" style="stroke: #000000; stroke-width: 0.6"/>
      </g>
     </g>
    </g>
    <g id="ytick_27">
     <g id="line2d_74">
      <g>
       <use xlink:href="#mefbe083795" x="44.210938" y="28.421384" style="stroke: #000000; stroke-width: 0.6"/>
      </g>
     </g>
    </g>
    <g id="text_16">
     <!-- 位移 -->
     <g transform="translate(14.798438 122.298743) rotate(-90) scale(0.1 -0.1)">
      <defs>
       <path id="DejaVuSans-4f4d" d="M 319 -1131 
L 319 4513 
L 3519 4513 
L 3519 -1131 
L 319 -1131 
z
M 678 -775 
L 3163 -775 
L 3163 4153 
L 678 4153 
L 678 -775 
z
" transform="scale(0.015625)"/>
       <path id="DejaVuSans-79fb" d="M 319 -1131 
L 319 4513 
L 3519 4513 
L 3519 -1131 
L 319 -1131 
z
M 678 -775 
L 3163 -775 
L 3163 4153 
L 678 4153 
L 678 -775 
z
" transform="scale(0.015625)"/>
      </defs>
      <use xlink:href="#DejaVuSans-4f4d"/>
      <use xlink:href="#DejaVuSans-79fb" x="60.009766"/>
     </g>
    </g>
   </g>
   <g id="line2d_75">
    <path d="M 62.159042 118.642119 
L 64.074784 118.559429 
L 65.751058 118.266556 
L 66.948397 118.110882 
L 67.906267 118.178233 
L 68.864138 118.462699 
L 70.061477 119.080703 
L 71.737751 120.308864 
L 72.935089 121.476731 
L 73.89296 122.668349 
L 75.090299 124.264635 
L 75.808702 124.867498 
L 76.287637 125.039017 
L 76.766573 124.895892 
L 77.484976 124.221823 
L 79.16125 122.559495 
L 79.879653 121.861319 
L 80.358588 121.106862 
L 80.837524 119.85982 
L 81.316459 117.890393 
L 81.795395 114.800192 
L 82.27433 110.135709 
L 82.992733 99.864648 
L 84.669007 72.795877 
L 84.908475 70.855951 
L 85.147943 69.995218 
L 85.38741 70.394605 
L 85.626878 72.179778 
L 86.105813 79.945116 
L 86.824217 99.612155 
L 88.021555 134.565546 
L 88.50049 143.335939 
L 88.979426 147.879606 
L 89.218894 148.85404 
L 89.937297 150.457799 
L 90.176764 151.903862 
L 90.6557 157.794463 
L 91.374103 172.622058 
L 92.092506 185.817324 
L 92.331974 188.130623 
L 92.571442 189.019569 
L 92.810909 188.365356 
L 93.050377 186.108063 
L 93.529312 176.872791 
L 94.247716 153.637347 
L 95.445054 110.350758 
L 96.163457 91.354829 
L 98.797602 33.906127 
L 99.03707 31.65579 
L 99.276537 30.861675 
L 99.516005 31.721826 
L 99.755473 34.371388 
L 100.234408 44.983516 
L 100.952811 70.164861 
L 101.910682 103.992404 
L 102.629085 121.422016 
L 104.544827 157.185676 
L 105.981633 194.318402 
L 106.460569 200.45422 
L 106.700036 201.709098 
L 106.939504 201.732685 
L 107.178972 200.548922 
L 107.657907 194.852223 
L 108.136843 185.58864 
L 108.855246 167.517011 
L 109.813117 137.731813 
L 111.010455 91.871833 
L 111.968326 55.684911 
L 112.447261 43.648527 
L 112.926197 37.969818 
L 113.165665 37.56438 
L 113.405132 38.676283 
L 113.6446 41.181252 
L 114.123535 49.611182 
L 116.75768 106.728486 
L 117.715551 126.1368 
L 119.391825 163.390668 
L 119.87076 168.363268 
L 120.110228 169.261274 
L 120.349696 169.111633 
L 120.589164 167.982453 
L 121.068099 163.263385 
L 121.786502 152.358155 
L 122.983841 133.497134 
L 123.941712 122.319902 
L 124.660115 115.901729 
L 125.378518 111.283147 
L 126.575856 104.243995 
L 127.294259 99.775679 
L 127.773195 97.83686 
L 128.25213 96.993792 
L 128.491598 96.928112 
L 128.731066 97.066073 
L 128.970533 97.396415 
L 129.449469 98.633544 
L 129.928404 100.681424 
L 130.646807 105.083639 
L 132.802017 119.635565 
L 135.196694 133.462411 
L 135.915097 136.217498 
L 136.394032 137.01942 
L 136.6335 136.969316 
L 136.872968 136.57396 
L 137.351903 134.740935 
L 137.830839 131.671774 
L 138.78871 123.25609 
L 139.507113 117.095523 
L 139.986048 114.18084 
L 140.464984 112.59305 
L 140.704451 112.279417 
L 140.943919 112.217115 
L 141.90179 112.533402 
L 142.141258 112.2954 
L 142.620193 111.162046 
L 143.338596 108.283261 
L 144.056999 105.306592 
L 144.535935 104.281701 
L 144.775402 104.314644 
L 145.01487 104.790641 
L 145.493805 107.105496 
L 146.212209 113.19227 
L 147.649015 126.845527 
L 148.367418 131.412221 
L 148.846353 132.880544 
L 149.085821 133.120684 
L 149.325289 133.07153 
L 149.564757 132.77408 
L 150.043692 131.53049 
L 150.522627 129.36259 
L 151.001563 126.11317 
L 152.917304 110.870215 
L 153.39624 108.621131 
L 153.875175 107.187004 
L 154.114643 106.812841 
L 154.354111 106.693633 
L 154.593578 106.851194 
L 154.833046 107.304882 
L 155.311982 109.159918 
L 155.790917 112.283874 
L 157.467191 125.754295 
L 157.946126 127.441388 
L 158.185594 127.760772 
L 158.425062 127.761558 
L 158.66453 127.480492 
L 159.143465 126.30485 
L 159.861868 124.198078 
L 160.340803 123.379885 
L 160.819739 123.103896 
L 161.298674 122.880694 
L 161.538142 122.59996 
L 162.017077 121.448057 
L 162.496013 119.446813 
L 163.453884 113.841623 
L 164.172287 110.318649 
L 164.411755 109.689886 
L 164.651222 109.410933 
L 164.89069 109.479519 
L 165.130158 109.861418 
L 165.609093 111.319989 
L 167.285367 117.414111 
L 168.243238 119.900013 
L 168.961641 121.188961 
L 169.680044 122.007044 
L 169.919512 122.094605 
L 170.15898 122.023117 
L 170.398447 121.755653 
L 170.877383 120.626611 
L 172.074721 117.094291 
L 172.314189 116.820781 
L 172.553657 116.761359 
L 172.793124 116.896911 
L 173.27206 117.625318 
L 173.990463 119.452835 
L 175.187802 122.790376 
L 175.427269 123.058052 
L 175.666737 123.099483 
L 175.906205 122.932535 
L 176.38514 122.140954 
L 177.343011 119.811295 
L 178.300882 117.347563 
L 178.779817 116.649357 
L 179.019285 116.545752 
L 179.258753 116.610256 
L 179.737688 117.138617 
L 180.695559 118.558669 
L 181.174494 118.865787 
L 181.65343 118.835813 
L 182.611301 118.585396 
L 183.090236 118.728541 
L 183.808639 118.969813 
L 184.287574 118.738006 
L 184.76651 118.0796 
L 186.203316 115.556422 
L 186.442784 115.429669 
L 186.682252 115.456441 
L 187.161187 115.940746 
L 187.87959 117.395139 
L 189.555864 121.360373 
L 190.0348 121.827555 
L 190.274267 121.865661 
L 190.753203 121.583425 
L 191.232138 120.894911 
L 191.711073 119.819465 
L 192.429477 117.425289 
L 193.866283 112.055674 
L 194.345218 111.231382 
L 194.584686 111.103649 
L 194.824154 111.168614 
L 195.063621 111.42412 
L 195.542557 112.488262 
L 196.021492 114.260509 
L 196.739895 118.216238 
L 198.655637 130.442951 
L 199.134573 131.923762 
L 199.37404 132.271747 
L 199.613508 132.343206 
L 199.852976 132.134285 
L 200.092443 131.647462 
L 200.571379 129.885207 
L 201.289782 125.635903 
L 202.966056 114.328001 
L 203.684459 110.999923 
L 204.402862 108.733357 
L 204.881798 107.841673 
L 205.360733 107.478783 
L 205.600201 107.486525 
L 206.079136 107.84741 
L 206.558072 108.65149 
L 207.037007 109.91557 
L 207.75541 112.663023 
L 209.671152 121.197576 
L 210.389555 123.038684 
L 210.86849 123.680276 
L 211.347426 123.925331 
L 213.0237 124.171431 
L 213.742103 124.451759 
L 214.221038 124.389198 
L 214.699974 124.0154 
L 215.178909 123.356751 
L 215.897312 121.970541 
L 216.855183 119.551442 
L 218.531457 115.208967 
L 219.24986 113.896591 
L 219.968263 113.086687 
L 220.447199 112.881516 
L 220.926134 112.970738 
L 221.40507 113.358344 
L 221.884005 114.044802 
L 222.602408 115.645127 
L 224.039214 120.0021 
L 224.997085 122.456438 
L 225.715488 123.637354 
L 226.194424 123.967748 
L 226.433891 123.973284 
L 226.912827 123.640312 
L 227.391762 122.844509 
L 228.110165 121.000448 
L 229.068036 118.574222 
L 229.786439 117.420114 
L 230.983778 116.118177 
L 231.941649 115.341133 
L 232.660052 114.953895 
L 233.138987 114.858355 
L 233.617923 114.974463 
L 234.096858 115.365284 
L 234.575794 116.065058 
L 235.294197 117.644211 
L 236.491535 120.613943 
L 236.970471 121.387446 
L 237.449406 121.817928 
L 237.928342 121.987884 
L 238.646745 121.980805 
L 240.801954 121.620894 
L 241.280889 120.994748 
L 241.759825 119.881794 
L 242.478228 117.375909 
L 243.436099 113.733068 
L 243.915034 112.610034 
L 244.154502 112.338642 
L 244.39397 112.266233 
L 244.633437 112.379303 
L 245.112373 113.076648 
L 245.830776 114.956379 
L 247.50705 120.048748 
L 248.225453 121.299223 
L 248.943856 121.956878 
L 249.662259 122.222721 
L 250.380662 122.258104 
L 251.338533 122.052347 
L 252.056936 121.641413 
L 252.77534 120.863115 
L 253.493743 119.62042 
L 255.409484 115.768001 
L 256.127888 114.982746 
L 257.085758 114.322684 
L 257.564694 114.147243 
L 258.043629 114.205938 
L 258.522565 114.640352 
L 259.0015 115.546034 
L 259.719903 117.68057 
L 260.677774 120.748184 
L 261.156709 121.791798 
L 261.635645 122.353868 
L 262.11458 122.480058 
L 262.593516 122.299683 
L 263.790854 121.628969 
L 264.26979 121.615397 
L 265.467128 121.896064 
L 265.946064 121.646918 
L 266.424999 120.94833 
L 266.903934 119.770122 
L 267.861805 116.49735 
L 268.580208 114.20693 
L 269.059144 113.124746 
L 269.538079 112.450276 
L 270.017015 112.148668 
L 270.49595 112.176506 
L 270.974886 112.521278 
L 271.453821 113.222897 
L 271.932756 114.342509 
L 272.651159 116.764708 
L 274.566901 123.849372 
L 275.045837 124.880893 
L 275.524772 125.400202 
L 276.003707 125.430383 
L 276.482643 125.064538 
L 276.961578 124.408559 
L 277.679981 123.007433 
L 278.398385 121.10396 
L 280.314126 115.460823 
L 280.793062 114.628068 
L 281.271997 114.217521 
L 281.750932 114.24476 
L 282.229868 114.602025 
L 283.666674 115.911004 
L 285.821884 117.148086 
L 286.540287 118.094378 
L 287.498158 119.865614 
L 288.934964 122.727293 
L 289.653367 123.621546 
L 290.132302 123.915152 
L 290.611238 123.946446 
L 291.090173 123.666959 
L 291.569109 123.018691 
L 292.048044 121.980931 
L 292.766447 119.801553 
L 294.682189 113.444252 
L 295.161124 112.587308 
L 295.64006 112.188206 
L 296.118995 112.19049 
L 296.59793 112.501578 
L 297.076866 113.05023 
L 297.795269 114.282763 
L 298.513672 116.042575 
L 299.711011 119.879996 
L 300.668882 122.688953 
L 301.147817 123.592789 
L 301.626752 124.087308 
L 302.105688 124.207668 
L 302.584623 124.020273 
L 303.303026 123.335426 
L 304.260897 122.046888 
L 305.218768 120.415478 
L 306.176639 118.27991 
L 307.373977 115.553151 
L 308.092381 114.429111 
L 308.571316 114.00575 
L 309.050251 113.848586 
L 309.529187 113.93311 
L 310.008122 114.222808 
L 310.726525 114.96685 
L 311.444929 116.022207 
L 312.402799 117.841905 
L 314.318541 121.720927 
L 315.036944 122.646196 
L 315.51588 122.98958 
L 315.994815 123.106895 
L 316.47375 123.010559 
L 316.952686 122.721375 
L 317.671089 121.975961 
L 318.62896 120.518216 
L 321.502572 115.597044 
L 322.220975 114.993029 
L 322.699911 114.825201 
L 323.178846 114.846407 
L 323.657782 115.048481 
L 324.376185 115.659616 
L 325.094588 116.57655 
L 326.291927 118.515869 
L 327.728733 120.792842 
L 328.447136 121.606958 
L 329.165539 122.079535 
L 329.644474 122.183041 
L 330.12341 122.115666 
L 330.841813 121.713237 
L 331.560216 120.999761 
L 332.518087 119.708834 
L 334.673296 116.688046 
L 335.3917 116.046518 
L 336.110103 115.717001 
L 336.828506 115.722835 
L 337.546909 116.051281 
L 338.265312 116.656667 
L 339.462651 118.07328 
L 341.378392 120.398596 
L 342.096795 120.978986 
L 342.815199 121.295667 
L 343.533602 121.320946 
L 344.252005 121.061263 
L 344.970408 120.553391 
L 346.167746 119.332913 
L 348.083488 117.297281 
L 349.041359 116.662611 
L 349.759762 116.462843 
L 350.478165 116.517687 
L 351.196568 116.810484 
L 352.154439 117.495729 
L 355.506987 120.322299 
L 356.22539 120.575328 
L 356.943793 120.615833 
L 357.662197 120.447585 
L 358.620067 119.944622 
L 360.056874 118.836674 
L 361.49368 117.75565 
L 362.451551 117.282483 
L 363.169954 117.122922 
L 363.888357 117.145094 
L 364.846228 117.43661 
L 366.043566 118.110117 
L 368.438244 119.611469 
L 369.396114 119.950378 
L 370.353985 120.035005 
L 371.311856 119.861952 
L 372.509195 119.358325 
L 375.622275 117.826516 
L 376.580146 117.645858 
L 377.538016 117.681388 
L 378.735355 117.995623 
L 380.651097 118.82293 
L 382.087903 119.361795 
L 383.285242 119.574247 
L 384.48258 119.518152 
L 385.679919 119.229819 
L 389.511402 118.081087 
L 390.708741 118.037831 
L 392.145547 118.248266 
L 396.695433 119.242229 
L 398.13224 119.188805 
L 400.047981 118.843096 
L 402.682126 118.366907 
L 404.3584 118.324038 
L 406.274142 118.536402 
L 409.866157 119.000644 
L 411.781899 118.969773 
L 418.486995 118.533521 
L 421.12114 118.728966 
L 421.12114 118.728966 
" clip-path="url(#pb08e670718)" style="fill: none; stroke: #1f77b4; stroke-width: 2; stroke-linecap: square"/>
   </g>
   <g id="line2d_76">
    <path d="M 62.159042 118.64216 
L 64.074784 118.555597 
L 67.427332 118.228066 
L 68.385203 118.397448 
L 69.582541 118.870718 
L 71.019348 119.73831 
L 72.456154 120.774901 
L 73.414025 121.666879 
L 75.329766 123.732277 
L 76.04817 124.021382 
L 76.527105 123.96745 
L 77.484976 123.442705 
L 78.682314 122.686054 
L 79.879653 121.637271 
L 80.358588 120.953867 
L 80.837524 119.825819 
L 81.316459 117.988943 
L 81.795395 115.028695 
L 82.27433 110.554681 
L 82.992733 100.827923 
L 84.429539 78.249462 
L 84.908475 74.09039 
L 85.147943 73.483642 
L 85.38741 74.074213 
L 85.626878 75.951952 
L 86.105813 83.492431 
L 86.824217 101.656363 
L 87.782087 127.344764 
L 88.261023 136.739642 
L 88.739958 142.774581 
L 89.218894 146.074218 
L 89.937297 149.839533 
L 90.416232 154.790034 
L 91.134635 167.039992 
L 91.853038 178.892601 
L 92.331974 182.565381 
L 92.571442 182.659436 
L 92.810909 181.515923 
L 93.050377 179.130181 
L 93.529312 170.798124 
L 94.247716 151.272489 
L 96.163457 94.236334 
L 97.839731 52.926864 
L 98.318667 44.21603 
L 98.797602 39.056322 
L 99.03707 38.142818 
L 99.276537 38.50558 
L 99.516005 40.227823 
L 99.994941 47.80857 
L 100.713344 67.297836 
L 101.910682 102.29537 
L 102.868553 123.330619 
L 104.305359 152.634105 
L 105.502698 179.599228 
L 105.981633 186.857205 
L 106.460569 190.936264 
L 106.700036 191.769366 
L 106.939504 191.818028 
L 107.178972 191.092958 
L 107.41844 189.612955 
L 107.897375 184.509933 
L 108.37631 176.759 
L 109.094714 160.10523 
L 109.813117 137.198381 
L 111.968326 59.975829 
L 112.447261 50.789736 
L 112.686729 48.303792 
L 112.926197 47.190465 
L 113.165665 47.343633 
L 113.405132 48.644132 
L 113.884068 54.154338 
L 114.602471 67.142501 
L 118.433954 142.781137 
L 119.152357 153.864851 
L 119.631293 158.111022 
L 119.87076 159.135146 
L 120.110228 159.433198 
L 120.349696 159.048695 
L 120.589164 158.043756 
L 121.068099 154.472246 
L 121.786502 146.351588 
L 123.702244 121.581718 
L 124.181179 117.504914 
L 124.660115 114.873765 
L 125.13905 113.533506 
L 126.096921 111.879694 
L 126.575856 110.238522 
L 127.773195 105.636695 
L 128.25213 104.687445 
L 128.731066 104.309859 
L 128.970533 104.330149 
L 129.210001 104.494708 
L 129.688937 105.26092 
L 130.167872 106.533636 
L 131.365211 110.707452 
L 133.52042 118.578687 
L 135.196694 126.312904 
L 136.154565 130.177881 
L 136.6335 131.165493 
L 136.872968 131.273532 
L 137.112436 131.099121 
L 137.351903 130.646151 
L 137.830839 128.989977 
L 138.549242 125.212225 
L 139.507113 120.319495 
L 139.986048 118.928213 
L 140.464984 118.361099 
L 140.943919 118.330624 
L 141.422854 118.314823 
L 141.662322 118.137159 
L 142.141258 117.239967 
L 142.620193 115.641495 
L 144.535935 107.932047 
L 144.775402 107.591691 
L 145.01487 107.552998 
L 145.254338 107.827919 
L 145.733273 109.252728 
L 146.451676 112.971954 
L 148.606886 126.288086 
L 149.085821 127.65061 
L 149.325289 127.926412 
L 149.564757 127.935843 
L 149.804224 127.683534 
L 150.28316 126.391434 
L 150.762095 124.092763 
L 152.438369 114.555685 
L 153.156772 112.198818 
L 153.635708 111.058627 
L 154.114643 110.492921 
L 154.354111 110.547711 
L 154.593578 110.88839 
L 154.833046 111.544486 
L 155.311982 113.827896 
L 156.030385 119.200868 
L 156.988256 126.281201 
L 157.467191 128.086555 
L 157.706659 128.448734 
L 157.946126 128.491516 
L 158.185594 128.265415 
L 158.66453 127.213255 
L 161.538142 118.465642 
L 163.453884 110.220711 
L 163.932819 109.363061 
L 164.172287 109.268608 
L 164.411755 109.399564 
L 164.89069 110.252994 
L 165.609093 112.441336 
L 166.806432 116.968496 
L 168.722173 124.900464 
L 168.961641 125.284443 
L 169.201109 125.443655 
L 169.440576 125.375221 
L 169.680044 125.082171 
L 170.15898 123.869398 
L 170.877383 120.939286 
L 171.595786 118.097998 
L 172.074721 116.940035 
L 172.553657 116.420397 
L 173.032592 116.318823 
L 173.511528 116.449583 
L 173.990463 116.804294 
L 174.469398 117.450187 
L 175.427269 119.024755 
L 175.906205 119.468972 
L 176.38514 119.61775 
L 176.864075 119.472487 
L 177.343011 119.002964 
L 178.300882 117.744415 
L 178.540349 117.639695 
L 178.779817 117.687931 
L 179.258753 118.213509 
L 180.456091 120.169354 
L 180.935027 120.497177 
L 183.090236 120.996477 
L 183.329704 120.927424 
L 183.569171 120.720368 
L 184.048107 119.832072 
L 185.963848 114.920621 
L 186.442784 114.721925 
L 186.921719 114.953889 
L 187.640122 115.676757 
L 188.358526 116.700354 
L 189.076929 118.212947 
L 190.0348 120.372344 
L 190.513735 121.019838 
L 190.753203 121.150054 
L 190.99267 121.131122 
L 191.232138 120.953555 
L 191.711073 120.121203 
L 192.429477 117.932926 
L 193.387347 114.834081 
L 193.866283 113.825572 
L 194.345218 113.275917 
L 194.824154 113.188592 
L 195.063621 113.332674 
L 195.542557 114.057483 
L 196.021492 115.438688 
L 196.500428 117.523276 
L 197.458299 123.152297 
L 198.176702 127.171776 
L 198.655637 129.078389 
L 199.134573 130.121092 
L 199.37404 130.280048 
L 199.613508 130.188306 
L 199.852976 129.847756 
L 200.331911 128.465345 
L 200.810846 126.290366 
L 202.008185 119.12547 
L 202.966056 113.881055 
L 203.684459 111.00949 
L 204.163394 109.733374 
L 204.64233 109.04525 
L 204.881798 108.931717 
L 205.121265 108.965742 
L 205.600201 109.421199 
L 206.079136 110.289976 
L 206.797539 112.195939 
L 207.75541 115.674406 
L 209.192216 121.057458 
L 209.671152 122.166229 
L 210.150087 122.764152 
L 210.629023 122.906195 
L 211.107958 122.710656 
L 212.784232 121.611165 
L 213.981571 121.065589 
L 216.376248 119.466215 
L 217.334118 118.27968 
L 218.291989 117.098042 
L 219.010392 116.53676 
L 219.728796 116.259183 
L 220.447199 116.196224 
L 221.165602 116.398273 
L 221.644537 116.744865 
L 222.36294 117.625079 
L 224.278682 120.448169 
L 225.236553 121.413775 
L 225.715488 121.630014 
L 226.194424 121.499677 
L 226.673359 120.968797 
L 227.391762 119.568936 
L 228.349633 117.588114 
L 228.828569 116.976313 
L 229.546972 116.515959 
L 230.74431 116.108953 
L 231.223246 116.1396 
L 231.941649 116.506057 
L 233.617923 117.871132 
L 234.336326 118.649632 
L 235.294197 120.11743 
L 236.0126 121.171185 
L 236.491535 121.565849 
L 236.970471 121.619496 
L 237.449406 121.397707 
L 240.801954 118.92341 
L 241.280889 118.134608 
L 242.23876 115.918349 
L 242.957163 114.31266 
L 243.436099 113.642441 
L 243.915034 113.463005 
L 244.39397 113.781855 
L 244.872905 114.513846 
L 245.591308 116.217123 
L 247.746518 122.385278 
L 248.225453 122.986649 
L 248.704388 123.173611 
L 249.183324 122.9985 
L 249.901727 122.281959 
L 252.056936 119.441481 
L 253.014807 117.840879 
L 254.212146 115.817168 
L 254.691081 115.345142 
L 255.170017 115.135253 
L 255.88842 115.127162 
L 257.085758 115.267539 
L 257.564694 115.542836 
L 258.043629 116.150172 
L 258.522565 117.142144 
L 260.438306 122.043536 
L 260.917242 122.561003 
L 261.396177 122.709715 
L 261.875113 122.577364 
L 262.593516 122.008128 
L 264.988193 119.55022 
L 265.706596 118.934054 
L 266.424999 117.971697 
L 268.580208 114.301203 
L 269.298612 113.780683 
L 269.777547 113.685146 
L 270.256482 113.839912 
L 270.735418 114.322318 
L 271.214353 115.195298 
L 271.932756 117.217865 
L 273.60903 122.584581 
L 274.327433 123.961118 
L 274.806369 124.438108 
L 275.285304 124.542951 
L 275.76424 124.2874 
L 276.243175 123.699627 
L 276.961578 122.271112 
L 277.679981 120.292586 
L 279.356255 115.207586 
L 279.835191 114.315934 
L 280.314126 113.854831 
L 280.793062 113.829313 
L 281.271997 114.206404 
L 281.9904 115.315037 
L 283.666674 118.195568 
L 284.624545 119.381449 
L 285.342948 119.944596 
L 286.061351 120.231158 
L 287.498158 120.682367 
L 288.934964 121.316834 
L 289.653367 121.3489 
L 290.37177 121.098125 
L 290.850705 120.735202 
L 291.329641 120.163119 
L 292.048044 118.879387 
L 294.203253 114.378699 
L 294.682189 113.969797 
L 295.161124 113.89751 
L 295.64006 114.108867 
L 296.358463 114.813143 
L 297.076866 115.900336 
L 297.795269 117.406201 
L 299.950478 122.466337 
L 300.429414 122.975053 
L 300.908349 123.132387 
L 301.387285 122.987053 
L 301.86622 122.607186 
L 302.584623 121.705752 
L 303.781962 119.658143 
L 305.458236 116.804936 
L 306.176639 115.907109 
L 306.895042 115.386064 
L 307.373977 115.268659 
L 307.852913 115.32362 
L 308.571316 115.695405 
L 309.289719 116.366004 
L 310.24759 117.59636 
L 312.402799 120.487366 
L 313.121202 121.088165 
L 313.839606 121.390829 
L 314.558009 121.378194 
L 315.276412 121.062522 
L 315.994815 120.491735 
L 317.192154 119.191239 
L 318.868428 117.400896 
L 319.586831 116.890294 
L 320.305234 116.613671 
L 321.023637 116.587881 
L 321.74204 116.798732 
L 322.699911 117.377921 
L 324.136717 118.602773 
L 325.573523 119.744267 
L 326.531394 120.209284 
L 327.249797 120.347832 
L 327.968201 120.299228 
L 328.926071 119.967471 
L 330.12341 119.24249 
L 332.278619 117.849492 
L 333.23649 117.496962 
L 334.194361 117.412172 
L 335.152232 117.59358 
L 336.34957 118.099413 
L 339.223183 119.463631 
L 340.181054 119.648353 
L 341.138925 119.634584 
L 342.336263 119.371924 
L 344.491473 118.560104 
L 345.928279 118.11972 
L 347.125617 117.979632 
L 348.322956 118.076743 
L 349.99923 118.499655 
L 352.393907 119.11415 
L 353.830713 119.217917 
L 355.267519 119.085215 
L 360.296341 118.352485 
L 361.972615 118.462649 
L 366.522502 118.932139 
L 368.677711 118.827187 
L 372.748662 118.572359 
L 375.622275 118.679581 
L 379.21429 118.774587 
L 387.116725 118.729224 
L 390.948208 118.752431 
L 397.174369 118.650785 
L 402.921594 118.79711 
L 410.105625 118.638869 
L 415.373915 118.828107 
L 421.12114 118.571994 
L 421.12114 118.571994 
" clip-path="url(#pb08e670718)" style="fill: none; stroke: #ff7f0e; stroke-width: 2; stroke-linecap: square"/>
   </g>
   <g id="line2d_77">
    <path d="M 44.210938 118.642575 
L 439.069245 118.642575 
" clip-path="url(#pb08e670718)" style="fill: none; stroke: #000000; stroke-opacity: 0.6; stroke-linecap: square"/>
   </g>
   <g id="patch_3">
    <path d="M 44.210938 210.276235 
L 44.210938 22.318125 
" style="fill: none; stroke: #000000; stroke-linejoin: miter; stroke-linecap: square"/>
   </g>
   <g id="patch_4">
    <path d="M 439.069245 210.276235 
L 439.069245 22.318125 
" style="fill: none; stroke: #000000; stroke-linejoin: miter; stroke-linecap: square"/>
   </g>
   <g id="patch_5">
    <path d="M 44.210938 210.276235 
L 439.069245 210.276235 
" style="fill: none; stroke: #000000; stroke-linejoin: miter; stroke-linecap: square"/>
   </g>
   <g id="patch_6">
    <path d="M 44.210938 22.318125 
L 439.069245 22.318125 
" style="fill: none; stroke: #000000; stroke-linejoin: miter; stroke-linecap: square"/>
   </g>
   <g id="text_17">
    <!-- 时程曲线 -->
    <g transform="translate(227.236341 16.318125) scale(0.12 -0.12)">
     <defs>
      <path id="DejaVuSans-7a0b" d="M 319 -1131 
L 319 4513 
L 3519 4513 
L 3519 -1131 
L 319 -1131 
z
M 678 -775 
L 3163 -775 
L 3163 4153 
L 678 4153 
L 678 -775 
z
" transform="scale(0.015625)"/>
      <path id="DejaVuSans-66f2" d="M 319 -1131 
L 319 4513 
L 3519 4513 
L 3519 -1131 
L 319 -1131 
z
M 678 -775 
L 3163 -775 
L 3163 4153 
L 678 4153 
L 678 -775 
z
" transform="scale(0.015625)"/>
      <path id="DejaVuSans-7ebf" d="M 319 -1131 
L 319 4513 
L 3519 4513 
L 3519 -1131 
L 319 -1131 
z
M 678 -775 
L 3163 -775 
L 3163 4153 
L 678 4153 
L 678 -775 
z
" transform="scale(0.015625)"/>
     </defs>
     <use xlink:href="#DejaVuSans-65f6"/>
     <use xlink:href="#DejaVuSans-7a0b" x="60.009766"/>
     <use xlink:href="#DejaVuSans-66f2" x="120.019531"/>
     <use xlink:href="#DejaVuSans-7ebf" x="180.029297"/>
    </g>
   </g>
   <g id="legend_1">
    <g id="patch_7">
     <path d="M 352.056745 59.674375 
L 432.069245 59.674375 
Q 434.069245 59.674375 434.069245 57.674375 
L 434.069245 29.318125 
Q 434.069245 27.318125 432.069245 27.318125 
L 352.056745 27.318125 
Q 350.056745 27.318125 350.056745 29.318125 
L 350.056745 57.674375 
Q 350.056745 59.674375 352.056745 59.674375 
z
" style="fill: #ffffff; opacity: 0.8; stroke: #cccccc; stroke-linejoin: miter"/>
    </g>
    <g id="line2d_78">
     <path d="M 354.056745 35.416562 
L 364.056745 35.416562 
L 374.056745 35.416562 
" style="fill: none; stroke: #1f77b4; stroke-width: 2; stroke-linecap: square"/>
    </g>
    <g id="text_18">
     <!-- 未设置粘滞阻尼器 -->
     <g transform="translate(382.056745 38.916562) scale(0.1 -0.1)">
      <defs>
       <path id="DejaVuSans-672a" d="M 319 -1131 
L 319 4513 
L 3519 4513 
L 3519 -1131 
L 319 -1131 
z
M 678 -775 
L 3163 -775 
L 3163 4153 
L 678 4153 
L 678 -775 
z
" transform="scale(0.015625)"/>
       <path id="DejaVuSans-8bbe" d="M 319 -1131 
L 319 4513 
L 3519 4513 
L 3519 -1131 
L 319 -1131 
z
M 678 -775 
L 3163 -775 
L 3163 4153 
L 678 4153 
L 678 -775 
z
" transform="scale(0.015625)"/>
       <path id="DejaVuSans-7f6e" d="M 319 -1131 
L 319 4513 
L 3519 4513 
L 3519 -1131 
L 319 -1131 
z
M 678 -775 
L 3163 -775 
L 3163 4153 
L 678 4153 
L 678 -775 
z
" transform="scale(0.015625)"/>
       <path id="DejaVuSans-7c98" d="M 319 -1131 
L 319 4513 
L 3519 4513 
L 3519 -1131 
L 319 -1131 
z
M 678 -775 
L 3163 -775 
L 3163 4153 
L 678 4153 
L 678 -775 
z
" transform="scale(0.015625)"/>
       <path id="DejaVuSans-6ede" d="M 319 -1131 
L 319 4513 
L 3519 4513 
L 3519 -1131 
L 319 -1131 
z
M 678 -775 
L 3163 -775 
L 3163 4153 
L 678 4153 
L 678 -775 
z
" transform="scale(0.015625)"/>
       <path id="DejaVuSans-963b" d="M 319 -1131 
L 319 4513 
L 3519 4513 
L 3519 -1131 
L 319 -1131 
z
M 678 -775 
L 3163 -775 
L 3163 4153 
L 678 4153 
L 678 -775 
z
" transform="scale(0.015625)"/>
       <path id="DejaVuSans-5c3c" d="M 319 -1131 
L 319 4513 
L 3519 4513 
L 3519 -1131 
L 319 -1131 
z
M 678 -775 
L 3163 -775 
L 3163 4153 
L 678 4153 
L 678 -775 
z
" transform="scale(0.015625)"/>
       <path id="DejaVuSans-5668" d="M 319 -1131 
L 319 4513 
L 3519 4513 
L 3519 -1131 
L 319 -1131 
z
M 678 -775 
L 3163 -775 
L 3163 4153 
L 678 4153 
L 678 -775 
z
" transform="scale(0.015625)"/>
      </defs>
      <use xlink:href="#DejaVuSans-672a"/>
      <use xlink:href="#DejaVuSans-8bbe" x="60.009766"/>
      <use xlink:href="#DejaVuSans-7f6e" x="120.019531"/>
      <use xlink:href="#DejaVuSans-7c98" x="180.029297"/>
      <use xlink:href="#DejaVuSans-6ede" x="240.039062"/>
      <use xlink:href="#DejaVuSans-963b" x="300.048828"/>
      <use xlink:href="#DejaVuSans-5c3c" x="360.058594"/>
      <use xlink:href="#DejaVuSans-5668" x="420.068359"/>
     </g>
    </g>
    <g id="line2d_79">
     <path d="M 354.056745 50.094687 
L 364.056745 50.094687 
L 374.056745 50.094687 
" style="fill: none; stroke: #ff7f0e; stroke-width: 2; stroke-linecap: square"/>
    </g>
    <g id="text_19">
     <!-- 设置粘滞阻尼器 -->
     <g transform="translate(382.056745 53.594687) scale(0.1 -0.1)">
      <use xlink:href="#DejaVuSans-8bbe"/>
      <use xlink:href="#DejaVuSans-7f6e" x="60.009766"/>
      <use xlink:href="#DejaVuSans-7c98" x="120.019531"/>
      <use xlink:href="#DejaVuSans-6ede" x="180.029297"/>
      <use xlink:href="#DejaVuSans-963b" x="240.039062"/>
      <use xlink:href="#DejaVuSans-5c3c" x="300.048828"/>
      <use xlink:href="#DejaVuSans-5668" x="360.058594"/>
     </g>
    </g>
   </g>
  </g>
 </g>
 <defs>
  <clipPath id="pb08e670718">
   <rect x="44.210938" y="22.318125" width="394.858307" height="187.95811"/>
  </clipPath>
 </defs>
</svg>
